<?xml version="1.0" encoding="UTF-8"?>
<!DOCTYPE svg PUBLIC "-//W3C//DTD SVG 1.1//EN" "http://www.w3.org/Graphics/SVG/1.1/DTD/svg11.dtd">
<!-- Creator: CorelDRAW X8 -->
<svg xmlns="http://www.w3.org/2000/svg" xml:space="preserve" width="297mm" height="420mm" version="1.1" shape-rendering="geometricPrecision" text-rendering="geometricPrecision" image-rendering="optimizeQuality" fill-rule="evenodd" clip-rule="evenodd"
viewBox="0 0 29700 42000"
 xmlns:xlink="http://www.w3.org/1999/xlink">
 <g id="Layer_x0020_1">
  <metadata id="CorelCorpID_0Corel-Layer"/>
  <g id="_2961548500368">
   <path fill="#030707" d="M15454 26091c1093,-13 612,661 1463,-1894 278,-833 555,-1819 913,-2608 2211,-4874 2403,-6383 -150,-10663 -424,-711 -868,-1548 -1217,-2304 -205,-446 -882,-2442 -1009,-2594l0 20063z"/>
   <path fill="#030707" d="M14389 26091l0 -20063c-152,177 -751,2071 -981,2540 -1271,2592 -3135,5073 -3117,7536 15,2021 1877,5528 2634,8012 141,464 284,911 429,1372 300,954 259,595 1035,603z"/>
   <path fill="#030707" d="M17394 26093c851,508 444,5 1927,-1457 1637,-1614 4991,-1853 5117,-252 35,449 -129,1073 -358,1490 -371,567 -687,579 -1011,872 5396,-30 5284,-7003 1701,-7514 -1702,-243 -3798,1059 -4813,2355 -621,793 -2664,3568 -2563,4506z"/>
   <path fill="#030707" d="M6773 26746c-445,-393 -1411,-566 -1315,-2378 85,-1612 3919,-1580 5926,1206 348,483 382,928 1056,541 116,-769 -3111,-7277 -7220,-6897 -3677,339 -3924,7497 1553,7528z"/>
   <path fill="#030707" d="M20932 29271c-213,377 -423,1260 -813,1486 -599,348 -1271,112 -1581,-462 -228,-422 -382,-1445 -822,-1564 -1730,-470 -343,3622 1941,3365 2082,-234 1824,-2435 1275,-2825z"/>
   <path fill="#030707" d="M15453 35423c424,-262 1364,-2101 1506,-2669 259,-1031 -319,-2217 -709,-3201 -304,-754 -571,-841 -797,-841 0,0 -2,2054 1,2538 0,1289 -1,4173 -1,4173z"/>
   <path fill="#030707" d="M8904 29277c-447,312 -925,2417 1218,2806 2212,401 3784,-3729 2079,-3362 -723,155 -754,2965 -2408,2049 -583,-324 -576,-1124 -889,-1493z"/>
   <path fill="#030707" d="M14389 35426l0 -6715c-701,20 -789,802 -1014,1443 -172,490 -536,1408 -549,1914 -20,789 893,2918 1563,3358z"/>
   <path fill="#030707" d="M8366 27150l999 1552 975 -1552 -977 -1591c0,0 -997,1591 -997,1591z"/>
   <path fill="#030707" d="M12150 28003c456,152 1778,82 2239,-29l0 -1310c-584,0 -1071,66 -1608,194 -689,165 -907,318 -631,1145z"/>
   <path fill="#030707" d="M15454 27974c589,142 1612,105 2241,52 168,-1019 19,-1044 -689,-1194 -513,-67 -1009,-161 -1552,-168l0 1310z"/>
   <path fill="#030707" d="M19505 27150l999 1552 975 -1552 -977 -1591c0,0 -997,1591 -997,1591z"/>
  </g>
 </g>
</svg>
