<?xml version="1.0" encoding="UTF-8" standalone="no"?><!DOCTYPE svg PUBLIC "-//W3C//DTD SVG 1.1//EN" "http://www.w3.org/Graphics/SVG/1.1/DTD/svg11.dtd"><svg width="100%" height="100%" viewBox="0 0 3388 3478" version="1.1" xmlns="http://www.w3.org/2000/svg" xmlns:xlink="http://www.w3.org/1999/xlink" xml:space="preserve" xmlns:serif="http://www.serif.com/" style="fill-rule:evenodd;clip-rule:evenodd;stroke-linejoin:round;stroke-miterlimit:2;"><g><g><g><path d="M1099.02,701.501l-199.779,-677.648c-1.995,-7.286 -9.53,-11.583 -16.816,-9.588c-7.286,1.994 -11.583,9.529 -9.588,16.815l173.199,684.924c4.002,14.621 19.122,23.243 33.744,19.24c14.621,-4.002 23.242,-19.122 19.24,-33.743Z"/><path d="M1031.47,761.404l-218.321,-549.316c-2.625,-7.083 -10.508,-10.702 -17.591,-8.077c-7.084,2.626 -10.703,10.509 -8.077,17.592l192.48,558.894c5.269,14.215 21.087,21.477 35.301,16.208c14.214,-5.269 21.477,-21.087 16.208,-35.301Z"/><path d="M964.86,832.384l-249.259,-455.483c-3.449,-6.721 -11.706,-9.377 -18.427,-5.927c-6.721,3.449 -9.377,11.706 -5.927,18.427l224.741,468.066c6.921,13.486 23.491,18.816 36.977,11.894c13.487,-6.922 18.817,-23.491 11.895,-36.977Z"/><path d="M919.27,889.429l-434.308,-622.061c-4.212,-6.272 -12.722,-7.945 -18.994,-3.733c-6.272,4.211 -7.944,12.722 -3.733,18.993l411.43,637.425c8.451,12.585 25.529,15.942 38.114,7.491c12.585,-8.451 15.942,-25.53 7.491,-38.115Z"/><path d="M873.673,959.156l-283.544,-327.762c-4.758,-5.868 -13.385,-6.768 -19.252,-2.01c-5.867,4.758 -6.768,13.385 -2.01,19.252l262.14,345.121c9.548,11.774 26.86,13.581 38.634,4.032c11.774,-9.548 13.581,-26.859 4.032,-38.633Z"/><path d="M839.714,1019.32l-437.653,-409.366c-5.397,-5.286 -14.07,-5.196 -19.356,0.201c-5.286,5.397 -5.196,14.07 0.201,19.356l418.37,429.054c10.83,10.607 28.235,10.427 38.842,-0.403c10.607,-10.83 10.426,-28.235 -0.404,-38.842Z"/><path d="M811.035,1078.34l-626.646,-452.657c-6.044,-4.532 -14.631,-3.304 -19.163,2.74c-4.532,6.044 -3.304,14.63 2.74,19.162l610.114,474.705c12.128,9.094 29.358,6.631 38.452,-5.498c9.095,-12.128 6.631,-29.358 -5.497,-38.452Z"/><path d="M782.049,1158.98l-391.293,-229.747c-6.395,-4.021 -14.852,-2.094 -18.873,4.301c-4.021,6.396 -2.093,14.852 4.302,18.873l376.624,253.078c12.834,8.069 29.804,4.201 37.873,-8.632c8.069,-12.834 4.201,-29.804 -8.633,-37.873Z"/><path d="M760.339,1234.06l-578.592,-242.658c-6.901,-3.074 -14.999,0.033 -18.073,6.934c-3.074,6.9 0.033,14.998 6.934,18.072l567.377,267.832c13.848,6.169 30.098,-0.066 36.267,-13.913c6.169,-13.848 -0.066,-30.098 -13.913,-36.267Z"/><path d="M745.829,1312.08l-477.485,-143.167c-7.174,-2.369 -14.921,1.532 -17.289,8.705c-2.369,7.174 1.531,14.921 8.705,17.29l468.843,169.334c14.395,4.754 29.941,-3.074 34.694,-17.468c4.754,-14.395 -3.074,-29.941 -17.468,-34.694Z"/><path d="M736.699,1369.01l-321.925,-33.902c-7.472,-1.111 -14.44,4.055 -15.551,11.527c-1.11,7.472 4.055,14.44 11.528,15.55l317.874,61.162c14.995,2.228 28.977,-8.137 31.205,-23.131c2.228,-14.995 -8.137,-28.978 -23.131,-31.206Z"/><path d="M733.649,1442.87l-705.309,-31.273c-7.539,-0.482 -14.051,5.247 -14.533,12.786c-0.482,7.539 5.248,14.051 12.787,14.533l703.551,58.775c15.129,0.967 28.196,-10.53 29.163,-25.659c0.967,-15.128 -10.53,-28.196 -25.659,-29.162Z"/><path d="M736.608,1529.66l-561.222,46.305c-7.542,0.437 -13.31,6.915 -12.873,14.456c0.436,7.542 6.914,13.31 14.456,12.873l562.815,-18.792c15.134,-0.877 26.709,-13.875 25.833,-29.009c-0.877,-15.134 -13.875,-26.709 -29.009,-25.833Z"/><path d="M744.21,1600.43l-590.779,122.299c-7.431,1.362 -12.358,8.501 -10.996,15.931c1.362,7.431 8.501,12.358 15.931,10.996l595.748,-95.193c14.911,-2.733 24.798,-17.058 22.065,-31.969c-2.733,-14.91 -17.058,-24.797 -31.969,-22.064Z"/><path d="M785.97,1760.82l-364.42,137.789c-7.156,2.421 -11.001,10.195 -8.581,17.352c2.42,7.156 10.195,11.001 17.351,8.581l373.249,-111.685c14.361,-4.856 22.076,-20.458 17.22,-34.818c-4.857,-14.36 -20.458,-22.076 -34.819,-17.219Z"/><path d="M809.138,1826.6l-513.05,287.453c-6.675,3.537 -9.223,11.828 -5.686,18.503c3.537,6.675 11.828,9.223 18.503,5.686l525.954,-263.102c13.395,-7.098 18.507,-23.736 11.409,-37.131c-7.097,-13.395 -23.735,-18.507 -37.13,-11.409Z"/><path d="M837.123,1887.28l-251.217,183.734c-6.289,4.185 -7.997,12.689 -3.812,18.978c4.186,6.289 12.689,7.997 18.978,3.811l266.485,-160.791c12.62,-8.399 16.048,-25.463 7.649,-38.083c-8.398,-12.621 -25.463,-16.048 -38.083,-7.649Z"/><path d="M876.428,1956.41l-180.802,164.081c-5.872,4.753 -6.78,13.379 -2.027,19.251c4.753,5.872 13.379,6.78 19.251,2.027l198.141,-142.662c11.783,-9.537 13.605,-26.847 4.068,-38.63c-9.538,-11.783 -26.848,-13.605 -38.631,-4.067Z"/><path d="M917.466,2017.26l-326.895,338.503c-5.405,5.278 -5.507,13.951 -0.229,19.356c5.278,5.404 13.951,5.507 19.355,0.229l346.15,-318.787c10.845,-10.592 11.051,-27.996 0.46,-38.841c-10.592,-10.846 -27.996,-11.052 -38.841,-0.46Z"/><path d="M968.677,2079.14l-185.113,218.754c-5.151,5.525 -4.848,14.194 0.677,19.345c5.526,5.152 14.194,4.848 19.346,-0.677l205.269,-199.961c10.338,-11.088 9.729,-28.482 -1.359,-38.82c-11.088,-10.338 -28.482,-9.728 -38.82,1.359Z"/><path d="M1030.5,2142.99l-288.278,387.21c-4.682,5.928 -3.671,14.543 2.258,19.225c5.928,4.682 14.542,3.671 19.225,-2.257l309.903,-370.129c9.396,-11.896 7.366,-29.183 -4.53,-38.579c-11.896,-9.396 -29.182,-7.366 -38.578,4.53Z"/><path d="M1083.75,2191.63l-138.705,255.053c-3.92,6.457 -1.86,14.883 4.598,18.803c6.458,3.92 14.883,1.86 18.803,-4.598l162.262,-240.752c7.867,-12.959 3.732,-29.866 -9.226,-37.732c-12.959,-7.867 -29.866,-3.732 -37.732,9.226Z"/><path d="M1147.35,2238.21l-159.804,322.736c-3.608,6.637 -1.15,14.955 5.487,18.563c6.636,3.609 14.954,1.151 18.563,-5.486l184.015,-309.572c7.241,-13.318 2.308,-30.009 -11.01,-37.251c-13.318,-7.241 -30.009,-2.308 -37.251,11.01Z"/><path d="M1203.66,2273.28l-187.578,411.452c-3.341,6.775 -0.554,14.989 6.221,18.33c6.775,3.342 14.989,0.555 18.33,-6.22l212.293,-399.262c6.706,-13.595 1.112,-30.077 -12.483,-36.783c-13.596,-6.706 -30.078,-1.112 -36.783,12.483Z"/><path d="M1277.52,2311.59l-100.014,264.465c-3.014,6.927 0.164,14.998 7.091,18.011c6.928,3.013 14.998,-0.164 18.012,-7.092l125.285,-253.472c6.047,-13.901 -0.33,-30.096 -14.231,-36.143c-13.901,-6.047 -30.096,0.33 -36.143,14.231Z"/><path d="M1356.63,2345.52l-90.999,325.536c-2.328,7.186 1.616,14.911 8.802,17.24c7.187,2.329 14.912,-1.615 17.24,-8.802l117.215,-317.041c4.673,-14.421 -3.241,-29.923 -17.662,-34.596c-14.421,-4.673 -29.923,3.242 -34.596,17.663Z"/><path d="M1447.89,2371.77l-60.44,232.865c-2.313,7.191 1.647,14.908 8.838,17.222c7.192,2.313 14.908,-1.647 17.222,-8.838l86.674,-224.426c4.642,-14.43 -3.304,-29.916 -17.735,-34.558c-14.431,-4.643 -29.916,3.304 -34.559,17.735Z"/><path d="M1514.22,2389.14l-13.562,175.481c-1.17,7.463 3.939,14.473 11.402,15.643c7.464,1.169 14.473,-3.94 15.643,-11.403l40.787,-171.213c2.348,-14.976 -7.905,-29.041 -22.881,-31.389c-14.976,-2.348 -29.041,7.905 -31.389,22.881Z"/><path d="M758.178,1672.9l-498.024,162.31c-7.241,2.152 -11.374,9.777 -9.223,17.019c2.151,7.241 9.777,11.374 17.018,9.223l505.871,-135.893c14.532,-4.316 22.825,-19.619 18.508,-34.15c-4.316,-14.532 -19.619,-22.825 -34.15,-18.509Z"/></g><path d="M1693.63,2350.4c-251.564,2.957 -480.619,-96.468 -647.568,-259.538c-168.577,-164.66 -274.317,-393.551 -277.303,-647.568c-1.638,-139.399 27.518,-272.014 81.324,-391.326c56.006,-124.193 138.379,-234.066 240.15,-322.301c11.545,-9.774 12.983,-27.083 3.208,-38.628c-9.774,-11.546 -27.083,-12.983 -38.628,-3.209c-110.444,91.296 -200.672,206.189 -263.342,336.872c-60.849,126.884 -95.419,268.717 -97.181,418.592c-3.256,277.018 106.982,528.946 286.552,712.788c181.16,185.469 433.318,301.032 712.788,304.318c30.355,-0 55,-24.645 55,-55c-0,-30.356 -24.645,-55 -55,-55Z"/></g><g><g><path d="M2341.23,716.004l173.199,-684.924c1.994,-7.286 -2.302,-14.821 -9.588,-16.815c-7.287,-1.995 -14.822,2.302 -16.816,9.588l-199.78,677.648c-4.002,14.621 4.619,29.741 19.241,33.743c14.621,4.003 29.741,-4.619 33.744,-19.24Z"/><path d="M2407.3,780.497l192.481,-558.894c2.625,-7.083 -0.994,-14.966 -8.077,-17.592c-7.083,-2.625 -14.966,0.994 -17.592,8.077l-218.32,549.316c-5.269,14.214 1.993,30.032 16.207,35.301c14.214,5.269 30.032,-1.993 35.301,-16.208Z"/><path d="M2471.27,857.467l224.741,-468.066c3.449,-6.721 0.793,-14.978 -5.927,-18.427c-6.721,-3.45 -14.978,-0.794 -18.428,5.927l-249.258,455.483c-6.922,13.486 -1.592,30.055 11.894,36.977c13.487,6.922 30.056,1.592 36.978,-11.894Z"/><path d="M2513.6,920.053l411.429,-637.425c4.212,-6.271 2.539,-14.782 -3.732,-18.993c-6.272,-4.212 -14.783,-2.539 -18.994,3.733l-434.309,622.061c-8.45,12.585 -5.094,29.664 7.491,38.115c12.585,8.451 29.664,5.094 38.115,-7.491Z"/><path d="M2556.26,993.757l262.139,-345.121c4.758,-5.867 3.858,-14.494 -2.009,-19.252c-5.868,-4.758 -14.495,-3.858 -19.253,2.01l-283.544,327.762c-9.548,11.774 -7.741,29.085 4.033,38.633c11.774,9.549 29.085,7.742 38.634,-4.032Z"/><path d="M2585.99,1058.57l418.37,-429.054c5.397,-5.286 5.487,-13.959 0.202,-19.356c-5.286,-5.397 -13.96,-5.487 -19.357,-0.201l-437.653,409.366c-10.83,10.607 -11.011,28.012 -0.403,38.842c10.607,10.83 28.011,11.01 38.841,0.403Z"/><path d="M2609.18,1122.29l610.114,-474.705c6.044,-4.532 7.271,-13.118 2.739,-19.162c-4.532,-6.044 -13.118,-7.272 -19.162,-2.74l-626.646,452.657c-12.129,9.094 -14.592,26.324 -5.498,38.452c9.094,12.129 26.324,14.592 38.453,5.498Z"/><path d="M2634.45,1205.48l376.624,-253.078c6.396,-4.021 8.323,-12.477 4.302,-18.873c-4.021,-6.395 -12.478,-8.322 -18.873,-4.301l-391.293,229.747c-12.833,8.069 -16.701,25.039 -8.632,37.873c8.069,12.833 25.039,16.701 37.872,8.632Z"/><path d="M2649.28,1284.24l567.378,-267.832c6.901,-3.074 10.007,-11.172 6.933,-18.072c-3.074,-6.901 -11.172,-10.008 -18.072,-6.934l-578.592,242.658c-13.848,6.169 -20.082,22.419 -13.913,36.267c6.168,13.847 22.419,20.082 36.266,13.913Z"/><path d="M2658.66,1364.24l468.844,-169.334c7.173,-2.369 11.074,-10.116 8.705,-17.29c-2.369,-7.173 -10.116,-11.074 -17.289,-8.705l-477.485,143.167c-14.395,4.753 -22.222,20.299 -17.469,34.694c4.754,14.394 20.3,22.222 34.694,17.468Z"/><path d="M2658.64,1423.34l317.874,-61.162c7.472,-1.11 12.637,-8.078 11.527,-15.55c-1.11,-7.472 -8.078,-12.638 -15.55,-11.527l-321.925,33.902c-14.995,2.228 -25.36,16.211 -23.132,31.206c2.228,14.994 16.211,25.359 31.206,23.131Z"/><path d="M2657.12,1497.69l703.552,-58.775c7.539,-0.482 13.268,-6.994 12.787,-14.533c-0.482,-7.539 -6.994,-13.268 -14.533,-12.786l-705.31,31.273c-15.128,0.966 -26.625,14.034 -25.659,29.162c0.967,15.129 14.035,26.626 29.163,25.659Z"/><path d="M2647.48,1584.5l562.816,18.792c7.542,0.437 14.019,-5.331 14.456,-12.873c0.437,-7.541 -5.332,-14.019 -12.873,-14.456l-561.222,-46.305c-15.134,-0.876 -28.133,10.699 -29.009,25.833c-0.877,15.134 10.699,28.132 25.832,29.009Z"/><path d="M2633.15,1654.46l595.748,95.193c7.431,1.362 14.569,-3.565 15.931,-10.996c1.362,-7.43 -3.565,-14.569 -10.995,-15.931l-590.779,-122.299c-14.911,-2.733 -29.236,7.154 -31.969,22.064c-2.733,14.911 7.153,29.236 22.064,31.969Z"/><path d="M2583.69,1812.86l373.249,111.685c7.156,2.42 14.931,-1.425 17.351,-8.581c2.42,-7.157 -1.425,-14.931 -8.581,-17.352l-364.42,-137.789c-14.36,-4.857 -29.962,2.859 -34.818,17.219c-4.857,14.36 2.859,29.962 17.219,34.818Z"/><path d="M2552.4,1875.14l525.953,263.102c6.675,3.537 14.966,0.989 18.503,-5.686c3.538,-6.675 0.99,-14.966 -5.685,-18.503l-513.051,-287.453c-13.394,-7.098 -30.032,-1.986 -37.13,11.409c-7.098,13.395 -1.985,30.033 11.41,37.131Z"/><path d="M2519.7,1933.01l266.485,160.791c6.289,4.186 14.793,2.478 18.978,-3.811c4.186,-6.289 2.478,-14.793 -3.811,-18.978l-251.217,-183.734c-12.621,-8.399 -29.685,-4.972 -38.084,7.649c-8.398,12.62 -4.971,29.684 7.649,38.083Z"/><path d="M2476.27,1999.11l198.141,142.662c5.871,4.753 14.497,3.845 19.25,-2.027c4.753,-5.872 3.845,-14.498 -2.027,-19.251l-180.802,-164.081c-11.783,-9.538 -29.092,-7.716 -38.63,4.067c-9.538,11.783 -7.715,29.093 4.068,38.63Z"/><path d="M2431.41,2056.56l346.149,318.787c5.405,5.278 14.078,5.175 19.356,-0.229c5.278,-5.405 5.175,-14.078 -0.229,-19.356l-326.895,-338.503c-10.845,-10.592 -28.249,-10.386 -38.841,0.46c-10.592,10.845 -10.385,28.249 0.46,38.841Z"/><path d="M2378.41,2116.6l205.27,199.961c5.151,5.525 13.82,5.829 19.345,0.677c5.525,-5.151 5.829,-13.82 0.677,-19.345l-185.113,-218.754c-10.337,-11.087 -27.732,-11.697 -38.819,-1.359c-11.088,10.338 -11.697,27.732 -1.36,38.82Z"/><path d="M2313.65,2177.04l309.904,370.129c4.682,5.928 13.297,6.939 19.225,2.257c5.928,-4.682 6.94,-13.297 2.257,-19.225l-288.277,-387.21c-9.396,-11.896 -26.683,-13.926 -38.579,-4.53c-11.896,9.396 -13.926,26.683 -4.53,38.579Z"/><path d="M2256.55,2220.13l162.263,240.752c3.92,6.458 12.345,8.518 18.803,4.598c6.457,-3.92 8.518,-12.346 4.598,-18.803l-138.705,-255.053c-7.866,-12.958 -24.773,-17.093 -37.732,-9.226c-12.959,7.866 -17.093,24.773 -9.227,37.732Z"/><path d="M2191.65,2264.45l184.015,309.572c3.608,6.637 11.926,9.095 18.563,5.486c6.637,-3.608 9.095,-11.926 5.486,-18.563l-159.804,-322.736c-7.241,-13.318 -23.933,-18.251 -37.251,-11.01c-13.317,7.242 -18.251,23.933 -11.009,37.251Z"/><path d="M2134.33,2297.58l212.293,399.262c3.342,6.775 11.555,9.562 18.33,6.22c6.775,-3.341 9.563,-11.555 6.221,-18.33l-187.577,-411.452c-6.706,-13.595 -23.188,-19.189 -36.783,-12.483c-13.596,6.706 -19.189,23.188 -12.484,36.783Z"/><path d="M2059.37,2333.5l125.285,253.472c3.013,6.928 11.084,10.105 18.011,7.092c6.927,-3.013 10.105,-11.084 7.092,-18.011l-100.014,-264.465c-6.047,-13.901 -22.242,-20.278 -36.143,-14.231c-13.901,6.047 -20.278,22.242 -14.231,36.143Z"/><path d="M1978.37,2362.46l117.215,317.041c2.329,7.187 10.054,11.131 17.24,8.802c7.187,-2.329 11.131,-10.054 8.802,-17.24l-90.998,-325.536c-4.673,-14.421 -20.175,-22.336 -34.596,-17.663c-14.421,4.673 -22.336,20.175 -17.663,34.596Z"/><path d="M1887.08,2388.6l86.674,224.426c2.313,7.191 10.03,11.151 17.221,8.838c7.192,-2.314 11.152,-10.031 8.838,-17.222l-60.44,-232.865c-4.642,-14.431 -20.127,-22.378 -34.558,-17.735c-14.431,4.642 -22.378,20.128 -17.735,34.558Z"/><path d="M1818.77,2397.65l40.788,171.213c1.17,7.463 8.179,12.572 15.642,11.403c7.463,-1.17 12.573,-8.18 11.403,-15.643l-13.562,-175.481c-2.348,-14.976 -16.413,-25.229 -31.39,-22.881c-14.976,2.348 -25.229,16.413 -22.881,31.389Z"/><path d="M2613.44,1725.56l505.87,135.893c7.242,2.151 14.868,-1.982 17.019,-9.223c2.151,-7.242 -1.982,-14.867 -9.224,-17.019l-498.023,-162.31c-14.532,-4.316 -29.834,3.977 -34.151,18.509c-4.316,14.531 3.977,29.834 18.509,34.15Z"/></g><path d="M1693.63,2460.4c279.47,-3.286 531.628,-118.849 712.787,-304.318c179.57,-183.842 289.809,-435.77 286.553,-712.788c-1.762,-149.875 -36.333,-291.708 -97.181,-418.592c-62.671,-130.683 -152.899,-245.576 -263.343,-336.872c-11.545,-9.774 -28.854,-8.337 -38.628,3.209c-9.774,11.545 -8.336,28.854 3.209,38.628c101.771,88.235 184.144,198.108 240.15,322.301c53.805,119.312 82.962,251.927 81.323,391.326c-2.986,254.017 -108.725,482.908 -277.302,647.568c-166.95,163.07 -396.005,262.495 -647.568,259.538c-30.356,-0 -55,24.644 -55,55c-0,30.355 24.644,55 55,55Z"/></g><g><g><g><path d="M1176.07,1054.17c-0,-0 20.327,57.2 -4.096,98.175c-24.422,40.974 -77.579,54.375 -84.405,50.306c-6.827,-4.069 -20.328,-57.2 4.095,-98.175c24.422,-40.975 84.406,-50.306 84.406,-50.306Z"/><path d="M1175.82,1088.86l44.41,-108.785l-74.56,90.814c-4.959,8.32 -2.231,19.102 6.09,24.061c8.32,4.959 19.101,2.23 24.06,-6.09Z"/></g><g><path d="M1176.9,1217.39c-0,-0 0.207,60.704 -36.422,91.261c-36.629,30.556 -91.222,25.57 -96.313,19.467c-5.091,-6.103 -0.207,-60.704 36.422,-91.261c36.629,-30.556 96.313,-19.467 96.313,-19.467Z"/><path d="M1165.16,1250.04l77.973,-87.9l-100.458,60.947c-7.438,6.205 -8.439,17.281 -2.234,24.719c6.205,7.438 17.281,8.439 24.719,2.234Z"/></g><g><path d="M1146.94,1336.37c-0,-0 2.338,60.66 -33.196,92.483c-35.534,31.823 -90.268,28.756 -95.57,22.836c-5.302,-5.92 -2.338,-60.66 33.196,-92.483c35.534,-31.823 95.57,-22.836 95.57,-22.836Z"/><path d="M1136.36,1369.41l74.839,-90.583l-98.256,64.436c-7.215,6.462 -7.827,17.567 -1.365,24.782c6.462,7.216 17.566,7.827 24.782,1.365Z"/></g><g><path d="M1147.15,1441.04c-0,-0 5.875,60.42 -27.74,94.264c-33.615,33.843 -88.434,33.978 -94.073,28.377c-5.639,-5.601 -5.876,-60.42 27.739,-94.264c33.615,-33.843 94.074,-28.377 94.074,-28.377Z"/><path d="M1138.51,1474.64l69.423,-94.798l-94.326,70.063c-6.826,6.872 -6.789,17.994 0.084,24.819c6.872,6.826 17.993,6.789 24.819,-0.084Z"/></g><g><path d="M1139.09,1542.85c0,0 25.224,55.217 4.457,98.16c-20.767,42.943 -72.557,60.915 -79.712,57.455c-7.154,-3.46 -25.224,-55.217 -4.457,-98.159c20.768,-42.943 79.712,-57.456 79.712,-57.456Z"/><path d="M1141.86,1577.43l34.782,-112.234l-66.381,96.953c-4.217,8.72 -0.561,19.223 8.159,23.44c8.72,4.217 19.223,0.561 23.44,-8.159Z"/></g><g><path d="M1177.5,1658.42c-0,-0 34.231,50.133 21.054,95.978c-13.176,45.845 -61.164,72.347 -68.802,70.152c-7.638,-2.195 -34.231,-50.133 -21.055,-95.978c13.177,-45.845 68.803,-70.152 68.803,-70.152Z"/><path d="M1186.1,1692.04l15.225,-116.509l-48.96,106.814c-2.675,9.309 2.71,19.039 12.02,21.714c9.309,2.676 19.039,-2.71 21.715,-12.019Z"/></g><g><path d="M1236.31,1755.65c-0,-0 46.129,39.46 45.376,87.155c-0.754,47.695 -40.161,85.805 -48.107,85.679c-7.947,-0.126 -46.13,-39.461 -45.376,-87.156c0.754,-47.695 48.107,-85.678 48.107,-85.678Z"/><path d="M1253.39,1785.85l-15.713,-116.445l-19.383,115.891c-0.153,9.685 7.586,17.672 17.271,17.825c9.685,0.153 17.672,-7.586 17.825,-17.271Z"/></g><g><path d="M1309.5,1842.09c0,-0 55.528,24.53 68.52,70.428c12.992,45.897 -13.793,93.728 -21.44,95.893c-7.646,2.164 -55.527,-24.531 -68.52,-70.428c-12.992,-45.898 21.44,-95.893 21.44,-95.893Z"/><path d="M1334.54,1866.11l-48.53,-107.009l14.757,116.57c2.639,9.319 12.347,14.744 21.667,12.106c9.32,-2.638 14.745,-12.347 12.106,-21.667Z"/></g><g><path d="M1407.48,1899.37c0,-0 60.215,7.698 85.742,47.994c25.527,40.296 13.475,93.774 6.762,98.027c-6.714,4.253 -60.215,-7.698 -85.742,-47.994c-25.527,-40.295 -6.762,-98.027 -6.762,-98.027Z"/><path d="M1438.32,1915.26l-77,-88.754l47.349,107.538c5.184,8.182 16.035,10.617 24.218,5.433c8.182,-5.183 10.617,-16.034 5.433,-24.217Z"/></g><g><path d="M1002.46,1108.82c0,0 56.152,23.066 70.344,68.607c14.192,45.54 -11.33,94.057 -18.917,96.422c-7.587,2.364 -56.152,-23.066 -70.344,-68.607c-14.191,-45.541 18.917,-96.422 18.917,-96.422Z"/><path d="M1028.12,1132.18l-51.321,-105.7l17.81,116.142c2.882,9.248 12.729,14.416 21.977,11.534c9.247,-2.881 14.416,-12.729 11.534,-21.976Z"/></g><g><path d="M949.08,1233.74c0,-0 58.405,16.552 77.667,60.191c19.262,43.639 -0.596,94.736 -7.867,97.945c-7.27,3.209 -58.404,-16.553 -77.666,-60.191c-19.262,-43.639 7.866,-97.945 7.866,-97.945Z"/><path d="M977.221,1254.03l-62.97,-99.202l30.859,113.376c3.912,8.861 14.281,12.88 23.143,8.969c8.861,-3.912 12.88,-14.281 8.968,-23.143Z"/></g><g><path d="M911.666,1378.8c0,-0 60.62,3.205 89.07,41.493c28.449,38.288 20.403,92.515 14.024,97.254c-6.38,4.74 -60.621,-3.204 -89.07,-41.493c-28.45,-38.288 -14.024,-97.254 -14.024,-97.254Z"/><path d="M943.603,1392.36l-83.379,-82.789l55.205,103.724c5.777,7.774 16.779,9.396 24.554,3.619c7.775,-5.776 9.397,-16.779 3.62,-24.554Z"/></g><g><path d="M913.299,1536.8c0,0 60.443,-5.64 94.155,28.107c33.712,33.746 33.633,88.566 28.011,94.183c-5.623,5.617 -60.443,5.64 -94.155,-28.107c-33.713,-33.746 -28.011,-94.183 -28.011,-94.183Z"/><path d="M946.868,1545.57l-94.528,-69.792l69.696,94.598c6.845,6.853 17.966,6.859 24.819,0.013c6.853,-6.846 6.858,-17.967 0.013,-24.819Z"/></g><g><path d="M951.449,1699.66c0,0 58.395,-16.586 97.705,10.435c39.31,27.02 49.246,80.932 44.744,87.481c-4.502,6.55 -58.395,16.587 -97.705,-10.434c-39.31,-27.02 -44.744,-87.482 -44.744,-87.482Z"/><path d="M986.055,1702.15l-105.686,-51.35l85.803,80.276c7.982,5.487 18.918,3.461 24.404,-4.522c5.487,-7.982 3.461,-18.917 -4.521,-24.404Z"/></g><g><path d="M1022.83,1857.31c-0,0 52.167,-31.043 97.103,-15.038c44.935,16.005 68.399,65.549 65.732,73.036c-2.666,7.487 -52.167,31.044 -97.102,15.039c-44.936,-16.005 -65.733,-73.037 -65.733,-73.037Z"/><path d="M1056.91,1850.82l-115.336,-22.45l103.559,55.515c9.124,3.25 19.171,-1.519 22.421,-10.644c3.25,-9.125 -1.52,-19.171 -10.644,-22.421Z"/></g><g><path d="M1126.02,1980.63c-0,-0 45.515,-40.168 92.638,-32.762c47.122,7.406 79.356,51.749 78.122,59.6c-1.234,7.851 -45.516,40.167 -92.638,32.761c-47.123,-7.406 -78.122,-59.599 -78.122,-59.599Z"/><path d="M1158.31,1967.94l-117.498,-0.701l112.048,35.376c9.569,1.504 18.558,-5.044 20.062,-14.613c1.504,-9.568 -5.043,-18.558 -14.612,-20.062Z"/></g><g><path d="M1253.3,2087.83c0,-0 29.745,-52.918 76.677,-61.447c46.933,-8.529 91.973,22.721 93.394,30.541c1.421,7.819 -29.745,52.918 -76.677,61.447c-46.932,8.528 -93.394,-30.541 -93.394,-30.541Z"/><path d="M1279.61,2065.21l-111.172,38.041l117.448,-3.506c9.53,-1.732 15.861,-10.875 14.13,-20.405c-1.732,-9.53 -10.876,-15.861 -20.406,-14.13Z"/></g><g><path d="M1418.5,2126.54c-0,0 30.872,-52.268 77.976,-59.789c47.104,-7.521 91.464,24.687 92.717,32.535c1.253,7.848 -30.872,52.269 -77.976,59.79c-47.104,7.521 -92.717,-32.536 -92.717,-32.536Z"/><path d="M1445.29,2104.49l-111.962,35.649l117.497,-0.988c9.564,-1.527 16.09,-10.533 14.563,-20.098c-1.527,-9.565 -10.533,-16.09 -20.098,-14.563Z"/></g></g><path d="M1567.77,2029.44c-96.445,-3.541 -190.678,-31.876 -272.818,-82.659c-80.905,-50.019 -150.235,-120.993 -198.748,-210.556c-49.295,-91.01 -71.358,-189.384 -69.016,-286.01c2.454,-101.25 31.398,-200.307 83.547,-287.054c-58.104,84.785 -93.049,183.586 -101.654,286.075c-8.471,100.894 8.859,205.066 54.734,303.305c46.572,99.729 117.11,180.483 201.166,239.639c87.959,61.904 190.979,99.306 297.972,109.633c19.972,1.329 37.266,-13.806 38.595,-33.778c1.329,-19.972 -13.806,-37.266 -33.778,-38.595Z"/></g><g><g><g><path d="M2212.99,1054.17c-0,-0 -20.328,57.2 4.095,98.175c24.422,40.974 77.579,54.375 84.406,50.306c6.826,-4.069 20.327,-57.2 -4.096,-98.175c-24.422,-40.975 -84.405,-50.306 -84.405,-50.306Z"/><path d="M2243.38,1070.89l-74.559,-90.814l44.409,108.785c4.959,8.32 15.74,11.049 24.061,6.09c8.32,-4.959 11.049,-15.741 6.089,-24.061Z"/></g><g><path d="M2212.15,1217.39c0,-0 -0.207,60.704 36.422,91.261c36.629,30.556 91.222,25.57 96.313,19.467c5.091,-6.103 0.207,-60.704 -36.422,-91.261c-36.629,-30.556 -96.313,-19.467 -96.313,-19.467Z"/><path d="M2246.38,1223.09l-100.457,-60.947l77.973,87.9c7.437,6.205 18.513,5.204 24.718,-2.234c6.205,-7.438 5.204,-18.514 -2.234,-24.719Z"/></g><g><path d="M2242.11,1336.37c-0,-0 -2.338,60.66 33.195,92.483c35.534,31.823 90.268,28.756 95.57,22.836c5.302,-5.92 2.338,-60.66 -33.196,-92.483c-35.533,-31.823 -95.569,-22.836 -95.569,-22.836Z"/><path d="M2276.12,1343.26l-98.256,-64.436l74.839,90.583c7.216,6.462 18.32,5.851 24.782,-1.365c6.462,-7.215 5.851,-18.32 -1.365,-24.782Z"/></g><g><path d="M2241.91,1441.04c-0,-0 -5.876,60.42 27.739,94.264c33.615,33.843 88.435,33.978 94.073,28.377c5.639,-5.601 5.876,-60.42 -27.739,-94.264c-33.615,-33.843 -94.073,-28.377 -94.073,-28.377Z"/><path d="M2275.45,1449.9l-94.327,-70.063l69.423,94.798c6.826,6.873 17.947,6.91 24.819,0.084c6.873,-6.825 6.91,-17.947 0.085,-24.819Z"/></g><g><path d="M2249.96,1542.85c-0,0 -25.224,55.217 -4.457,98.16c20.767,42.943 72.557,60.915 79.712,57.455c7.155,-3.46 25.224,-55.217 4.457,-98.159c-20.767,-42.943 -79.712,-57.456 -79.712,-57.456Z"/><path d="M2278.79,1562.15l-66.381,-96.953l34.782,112.234c4.217,8.72 14.721,12.376 23.441,8.159c8.719,-4.217 12.375,-14.72 8.158,-23.44Z"/></g><g><path d="M2211.56,1658.42c0,-0 -34.23,50.133 -21.054,95.978c13.176,45.845 61.164,72.347 68.802,70.152c7.638,-2.195 34.231,-50.133 21.055,-95.978c-13.177,-45.845 -68.803,-70.152 -68.803,-70.152Z"/><path d="M2236.69,1682.34l-48.96,-106.814l15.226,116.509c2.675,9.309 12.405,14.695 21.715,12.019c9.309,-2.675 14.694,-12.405 12.019,-21.714Z"/></g><g><path d="M2152.74,1755.65c0,-0 -46.129,39.46 -45.376,87.155c0.754,47.695 40.161,85.805 48.107,85.679c7.947,-0.126 46.13,-39.461 45.376,-87.156c-0.753,-47.695 -48.107,-85.678 -48.107,-85.678Z"/><path d="M2170.76,1785.3l-19.383,-115.891l-15.713,116.445c0.153,9.685 8.141,17.424 17.825,17.271c9.685,-0.153 17.424,-8.14 17.271,-17.825Z"/></g><g><path d="M2079.55,1842.09c-0,-0 -55.528,24.53 -68.52,70.428c-12.992,45.897 13.793,93.728 21.44,95.893c7.647,2.164 55.528,-24.531 68.52,-70.428c12.992,-45.898 -21.44,-95.893 -21.44,-95.893Z"/><path d="M2088.29,1875.67l14.757,-116.57l-48.53,107.009c-2.638,9.32 2.786,19.029 12.106,21.667c9.32,2.638 19.029,-2.787 21.667,-12.106Z"/></g><g><path d="M1981.58,1899.37c-0,-0 -60.215,7.698 -85.742,47.994c-25.527,40.296 -13.475,93.774 -6.762,98.027c6.714,4.253 60.215,-7.698 85.742,-47.994c25.527,-40.295 6.762,-98.027 6.762,-98.027Z"/><path d="M1980.39,1934.04l47.349,-107.538l-77,88.754c-5.184,8.183 -2.749,19.034 5.433,24.217c8.183,5.184 19.034,2.749 24.218,-5.433Z"/></g><g><path d="M2386.59,1108.82c-0,0 -56.152,23.066 -70.344,68.607c-14.192,45.54 11.33,94.057 18.917,96.422c7.588,2.364 56.152,-23.066 70.344,-68.607c14.191,-45.541 -18.917,-96.422 -18.917,-96.422Z"/><path d="M2394.44,1142.62l17.81,-116.142l-51.321,105.7c-2.881,9.247 2.287,19.095 11.534,21.976c9.248,2.882 19.095,-2.286 21.977,-11.534Z"/></g><g><path d="M2439.97,1233.74c-0,-0 -58.405,16.552 -77.667,60.191c-19.261,43.639 0.596,94.736 7.867,97.945c7.27,3.209 58.405,-16.553 77.666,-60.191c19.262,-43.639 -7.866,-97.945 -7.866,-97.945Z"/><path d="M2443.94,1268.21l30.859,-113.376l-62.97,99.202c-3.912,8.862 0.107,19.231 8.969,23.143c8.861,3.911 19.231,-0.108 23.142,-8.969Z"/></g><g><path d="M2477.39,1378.8c0,-0 -60.62,3.205 -89.07,41.493c-28.449,38.288 -20.403,92.515 -14.024,97.254c6.38,4.74 60.621,-3.204 89.07,-41.493c28.45,-38.288 14.024,-97.254 14.024,-97.254Z"/><path d="M2473.62,1413.29l55.206,-103.724l-83.38,82.789c-5.777,7.775 -4.155,18.778 3.62,24.554c7.775,5.777 18.777,4.155 24.554,-3.619Z"/></g><g><path d="M2475.76,1536.8c-0,0 -60.442,-5.64 -94.155,28.107c-33.712,33.746 -33.633,88.566 -28.01,94.183c5.622,5.617 60.442,5.64 94.154,-28.107c33.713,-33.746 28.011,-94.183 28.011,-94.183Z"/><path d="M2467.02,1570.38l69.695,-94.598l-94.527,69.792c-6.846,6.852 -6.84,17.973 0.012,24.819c6.853,6.846 17.974,6.84 24.82,-0.013Z"/></g><g><path d="M2437.61,1699.66c-0,0 -58.395,-16.586 -97.705,10.435c-39.31,27.02 -49.246,80.932 -44.744,87.481c4.502,6.55 58.395,16.587 97.705,-10.434c39.31,-27.02 44.744,-87.482 44.744,-87.482Z"/><path d="M2422.88,1731.08l85.803,-80.276l-105.686,51.35c-7.982,5.487 -10.008,16.422 -4.521,24.404c5.487,7.983 16.422,10.009 24.404,4.522Z"/></g><g><path d="M2366.22,1857.31c0,0 -52.167,-31.043 -97.102,-15.038c-44.936,16.005 -68.4,65.549 -65.733,73.036c2.666,7.487 52.167,31.044 97.102,15.039c44.936,-16.005 65.733,-73.037 65.733,-73.037Z"/><path d="M2343.92,1883.89l103.558,-55.515l-115.335,22.45c-9.125,3.25 -13.895,13.296 -10.645,22.421c3.25,9.125 13.297,13.894 22.422,10.644Z"/></g><g><path d="M2263.04,1980.63c0,-0 -45.515,-40.168 -92.638,-32.762c-47.122,7.406 -79.355,51.749 -78.122,59.6c1.234,7.851 45.516,40.167 92.638,32.761c47.123,-7.406 78.122,-59.599 78.122,-59.599Z"/><path d="M2236.2,2002.61l112.048,-35.376l-117.498,0.701c-9.569,1.504 -16.116,10.494 -14.612,20.062c1.504,9.569 10.493,16.117 20.062,14.613Z"/></g><g><path d="M2135.75,2087.83c-0,-0 -29.745,-52.918 -76.677,-61.447c-46.933,-8.529 -91.973,22.721 -93.394,30.541c-1.421,7.819 29.745,52.918 76.677,61.447c46.932,8.528 93.394,-30.541 93.394,-30.541Z"/><path d="M2103.17,2099.75l117.448,3.506l-111.172,-38.041c-9.53,-1.731 -18.674,4.6 -20.405,14.13c-1.732,9.53 4.599,18.673 14.129,20.405Z"/></g><g><path d="M1970.55,2126.54c-0,0 -30.872,-52.268 -77.977,-59.789c-47.104,-7.521 -91.464,24.687 -92.717,32.535c-1.253,7.848 30.872,52.269 77.976,59.79c47.104,7.521 92.718,-32.536 92.718,-32.536Z"/><path d="M1938.23,2139.16l117.496,0.988l-111.962,-35.649c-9.565,-1.527 -18.571,4.998 -20.098,14.563c-1.527,9.565 4.999,18.571 14.564,20.098Z"/></g></g><path d="M1826.1,2101.81c106.994,-10.327 210.013,-47.729 297.973,-109.633c84.055,-59.156 154.593,-139.91 201.165,-239.639c45.876,-98.239 63.205,-202.411 54.734,-303.305c-8.605,-102.489 -43.55,-201.29 -101.654,-286.075c52.149,86.747 81.093,185.804 83.547,287.054c2.343,96.626 -19.72,195 -69.016,286.01c-48.513,89.563 -117.843,160.537 -198.748,210.556c-82.14,50.783 -176.373,79.118 -272.817,82.659c-19.972,1.329 -35.108,18.623 -33.779,38.595c1.329,19.972 18.623,35.107 38.595,33.778Z"/></g><g><rect x="1265.44" y="1226.88" width="858.172" height="85.834"/><path d="M1676.94,3453.11c4.103,5.607 10.634,8.92 17.582,8.92c6.948,0 13.479,-3.313 17.582,-8.92c26.712,-36.502 77.655,-106.118 108.418,-148.155c4.865,-6.649 5.582,-15.468 1.854,-22.816c-3.728,-7.348 -11.268,-11.977 -19.507,-11.977c-57.605,-0 -159.089,-0 -216.694,-0c-8.239,-0 -15.779,4.629 -19.507,11.977c-3.728,7.348 -3.011,16.167 1.854,22.816c30.763,42.037 81.707,111.653 108.418,148.155Z"/><path d="M1638.94,1768.57l-167.161,0c72.715,129.396 110.876,754.607 92.521,1393.4l260.444,0c-18.355,-638.789 19.806,-1264 92.521,-1393.4l-154.248,0"/><path d="M1467.33,1636.63l454.39,0c27.127,-119.983 78.647,-210.694 151.463,-275.85l-757.316,-0c72.816,65.156 124.336,155.867 151.463,275.85Z"/></g><g><g><g><path d="M1588.23,278.504c4.871,3.782 9.564,7.793 14.046,12.046c10.822,10.27 20.104,21.667 28.063,33.774l0,182.144c0,6.448 5.235,11.683 11.684,11.683c6.448,0 11.683,-5.235 11.683,-11.683l0,-136.063c30.666,79.697 22.33,166.422 22.33,166.422c-0,-0 -160.511,23.961 -249.8,-60.771c-6.589,-6.253 -12.675,-12.992 -18.305,-20.122l168.616,-0c5.592,-0 10.271,-3.937 11.416,-9.188l0.016,-0.077l0.015,-0.073l0.016,-0.079l0.024,-0.128l0.017,-0.092l0.021,-0.124l0.023,-0.144l0.022,-0.146l0.019,-0.146l0.018,-0.146l0.016,-0.147l0.007,-0.074l0.007,-0.073l0.006,-0.074l0.006,-0.074l0.005,-0.075l0.005,-0.074l0.009,-0.149l0.007,-0.149l0.004,-0.15l0.003,-0.151l0.001,-0.151l0,-165.746Zm-77.192,-39.584c18.779,6.215 37.292,14.139 54.457,24.23c-0.409,1.19 -0.632,2.467 -0.632,3.795l0,165.622l-164.224,-0c-2.743,-0 -5.266,0.947 -7.259,2.531c-10.249,-16.564 -18.531,-34.418 -25.221,-52.516l131.195,0c5.793,0 10.607,-4.225 11.526,-9.76l0.012,-0.075l0.013,-0.083l0.011,-0.076l0.011,-0.073l0.017,-0.129l0.012,-0.101l0.014,-0.119l0.015,-0.147l0.013,-0.148l0.006,-0.074l0.01,-0.148l0.008,-0.149l0.007,-0.15l0.003,-0.075l0.002,-0.075l0.001,-0.075l0.002,-0.075l0.001,-0.151l-0,-131.979Zm-72.803,-16.653c15.944,2.276 32.835,5.463 49.869,9.899c-0.282,1.006 -0.433,2.066 -0.433,3.161l-0,123.889l-122.587,-0c-1.568,-0 -3.064,0.309 -4.432,0.871c-4.782,-15.934 -8.457,-31.73 -11.282,-46.684l77.182,-0l0.11,-0.001l0.116,-0.002l0.103,-0.002l0.122,-0.004l0.098,-0.004l0.126,-0.007l0.093,-0.005l0.073,-0.005l0.073,-0.006l0.073,-0.006l0.073,-0.006l0.073,-0.007l0.072,-0.007l0.073,-0.008l0.073,-0.008l0.073,-0.008l0.072,-0.01l0.073,-0.009l0.072,-0.01l0.072,-0.01l0.073,-0.011l0.072,-0.012l0.072,-0.011l0.072,-0.013l0.072,-0.012l0.071,-0.013l0.072,-0.014l0.072,-0.014l0.071,-0.014l0.072,-0.015l0.071,-0.016l0.071,-0.015l0.071,-0.017l0.071,-0.016l0.07,-0.017l0.07,-0.018l0.071,-0.018l0.07,-0.018l0.07,-0.019l0.07,-0.019l0.07,-0.02l0.07,-0.02l0.069,-0.02l0.069,-0.021l0.069,-0.022l0.07,-0.022l0.068,-0.022l0.068,-0.022l0.069,-0.023l0.068,-0.024l0.068,-0.024l0.135,-0.048l0.135,-0.051l0.117,-0.045l0.084,-0.034l0.114,-0.047l0.084,-0.035l0.112,-0.048l0.085,-0.038l0.11,-0.05l0.085,-0.039l0.107,-0.051l0.086,-0.042l0.105,-0.052l0.085,-0.044l0.103,-0.054l0.125,-0.066l0.124,-0.069l0.122,-0.069l0.122,-0.071l0.121,-0.073l0.12,-0.074l0.119,-0.075l0.118,-0.077l0.117,-0.078l0.116,-0.079l0.115,-0.081l0.114,-0.082l0.113,-0.084l0.112,-0.085l0.111,-0.086l0.11,-0.087l0.109,-0.089l0.107,-0.09l0.107,-0.091l0.105,-0.092l0.105,-0.094l0.069,-0.063l0.085,-0.08l0.067,-0.064l0.085,-0.081l0.065,-0.065l0.084,-0.084l0.064,-0.065l0.083,-0.086l0.061,-0.065l0.095,-0.102l0.082,-0.09l0.059,-0.066l0.092,-0.106l0.091,-0.106l0.089,-0.107l0.088,-0.109l0.087,-0.109l0.086,-0.111l0.084,-0.112l0.083,-0.113l0.083,-0.114l0.08,-0.115l0.079,-0.116l0.078,-0.117l0.077,-0.118l0.075,-0.119l0.074,-0.121l0.072,-0.121l0.072,-0.123l0.069,-0.123l0.069,-0.124l0.066,-0.125l0.057,-0.11l0.041,-0.08l0.054,-0.11l0.04,-0.082l0.052,-0.11l0.039,-0.083l0.05,-0.11l0.037,-0.086l0.047,-0.11l0.037,-0.088l0.045,-0.109l0.036,-0.091l0.042,-0.109l0.05,-0.133l0.048,-0.135l0.047,-0.135l0.045,-0.136l0.044,-0.137l0.041,-0.138l0.041,-0.138l0.038,-0.139l0.037,-0.139l0.035,-0.141l0.034,-0.141l0.032,-0.141l0.015,-0.071l0.015,-0.071l0.014,-0.072l0.014,-0.071l0.014,-0.072l0.013,-0.072l0.012,-0.072l0.012,-0.072l0.012,-0.072l0.012,-0.072l0.01,-0.073l0.011,-0.073l0.01,-0.073l0.009,-0.073l0.009,-0.073l0.009,-0.073l0.008,-0.073l0.008,-0.074l0.007,-0.074l0.007,-0.073l0.006,-0.074l0.006,-0.074l0.006,-0.075l0.005,-0.074l0.004,-0.074l0.004,-0.075l0.004,-0.075l0.003,-0.074l0.002,-0.075l0.002,-0.075l0.003,-0.151l0.001,-0.151l0,-79.452Zm-92.713,67.904c-6.016,-41.993 -5.465,-72.794 -5.465,-72.794c-0,-0 31.678,-2.118 74.904,2.102c-0.061,0.484 -0.092,0.976 -0.092,1.476l-0,69.081l-67.565,-0c-0.606,-0 -1.201,0.046 -1.782,0.135Z"/></g></g><g><g><path d="M1753.47,464.307l0,-165.745c-4.87,3.781 -9.563,7.792 -14.046,12.045c-10.821,10.27 -20.103,21.668 -28.063,33.774l0,182.144c0,6.448 -5.235,11.683 -11.683,11.683c-6.448,0 -11.684,-5.235 -11.684,-11.683l0,-136.063c-30.666,79.697 -22.329,166.422 -22.329,166.422c-0,-0 160.511,23.961 249.799,-60.77c6.59,-6.254 12.676,-12.993 18.306,-20.123l-168.616,-0l-0.151,-0.001l-0.109,-0.002l-0.117,-0.003l-0.105,-0.004l-0.119,-0.005l-0.103,-0.006l-0.12,-0.008l-0.102,-0.008l-0.121,-0.01l-0.101,-0.009l-0.12,-0.012l-0.102,-0.012l-0.117,-0.014l-0.104,-0.014l-0.115,-0.016l-0.145,-0.022l-0.144,-0.024l-0.144,-0.026l-0.072,-0.013l-0.071,-0.014l-0.072,-0.015l-0.071,-0.015l-0.071,-0.015l-0.071,-0.016l-0.07,-0.016l-0.071,-0.016l-0.07,-0.017l-0.071,-0.018l-0.07,-0.017c-5.037,-1.298 -8.764,-5.874 -8.765,-11.313l0,-0.003Zm77.193,-205.329c-18.783,6.214 -37.296,14.139 -54.457,24.229c0.409,1.19 0.631,2.467 0.631,3.795l0,165.622l164.225,0c2.742,0 5.265,0.947 7.259,2.531c10.249,-16.566 18.53,-34.416 25.22,-52.516l-131.195,0l-0.151,-0.001l-0.108,-0.001l-0.117,-0.004l-0.105,-0.003l-0.12,-0.006l-0.103,-0.006l-0.12,-0.007l-0.102,-0.008l-0.12,-0.01l-0.102,-0.009l-0.119,-0.013l-0.103,-0.011l-0.117,-0.015l-0.146,-0.019l-0.145,-0.021l-0.145,-0.023l-0.072,-0.013l-0.072,-0.012l-0.072,-0.013l-0.071,-0.014l-0.072,-0.014l-0.071,-0.014l-0.071,-0.015l-0.071,-0.015l-0.071,-0.016l-0.071,-0.016l-0.071,-0.017c-5.144,-1.222 -8.975,-5.851 -8.975,-11.367l-0,-131.978Zm72.802,62.798l0,-79.451c-15.94,2.273 -32.834,5.461 -49.869,9.898c0.283,1.006 0.434,2.066 0.434,3.161l-0,123.889l122.586,-0c1.569,-0 3.065,0.309 4.433,0.871c4.783,-15.937 8.458,-31.731 11.281,-46.684l-77.181,-0l-0.151,-0.001l-0.109,-0.002l-0.117,-0.003l-0.105,-0.004l-0.119,-0.006l-0.103,-0.005l-0.121,-0.008l-0.101,-0.008l-0.121,-0.01l-0.101,-0.009l-0.12,-0.012l-0.102,-0.012l-0.118,-0.014l-0.103,-0.014l-0.115,-0.016l-0.145,-0.022l-0.144,-0.024l-0.144,-0.026l-0.072,-0.014l-0.071,-0.013l-0.072,-0.015l-0.071,-0.015l-0.071,-0.015l-0.071,-0.016l-0.071,-0.016l-0.07,-0.016l-0.071,-0.017l-0.07,-0.018l-0.07,-0.017c-5.037,-1.298 -8.764,-5.874 -8.765,-11.313l0,-0.003Zm23.274,-82.24c0.062,0.484 0.093,0.976 0.093,1.476l-0,69.081l67.565,0c0.605,0 1.2,0.046 1.782,0.135c6.015,-41.993 5.465,-72.794 5.465,-72.794c-0,-0 -31.678,-2.118 -74.905,2.102Z"/></g></g><path d="M1895.48,506.468c389.247,141.878 111.58,615.637 -240.131,615.637c-175.877,-0 -581.106,-450.121 -183.724,-615.637l423.855,0Zm-386.926,355.351c-0.689,-27.432 1.088,-52.761 4.494,-77.043c1.54,-10.97 3.496,-21.484 5.735,-31.847c3.061,-14.173 7.057,-27.626 11.615,-40.722c3.081,-8.852 6.457,-17.478 10.14,-25.943c2.781,-6.388 5.652,-12.701 8.765,-18.922c7.27,-14.528 15.582,-28.491 25.721,-41.843c8.479,-11.164 17.761,-21.921 28.382,-32.335c14.965,-14.675 31.721,-28.544 51.32,-41.6c-22.299,9.001 -42.088,19.159 -59.9,31.025c-13.206,8.799 -24.997,18.397 -35.719,28.824c-13.305,12.939 -24.649,27.044 -34.137,42.322c-4.135,6.658 -7.821,13.58 -11.048,20.736c-4.258,9.44 -7.795,19.268 -10.524,29.423c-3.942,14.676 -6.409,29.943 -7.498,45.795c-0.772,11.239 -0.88,22.632 -0.195,34.383c1.458,24.994 5.976,50.584 12.849,77.747Z"/><path d="M1340.04,219.516l334.186,317.557" style="fill:none;"/></g></g></svg>