<?xml version="1.0" encoding="UTF-8"?>
<svg width="103px" height="103px" viewBox="0 0 103 103" version="1.1" xmlns="http://www.w3.org/2000/svg" xmlns:xlink="http://www.w3.org/1999/xlink">
    <!-- Generator: Sketch 49.3 (51167) - http://www.bohemiancoding.com/sketch -->
    <title>tfif_logo</title>
    <desc>Created with Sketch.</desc>
    <defs>
        <polygon id="path-1" points="0.0741303178 0.0748665105 16.2063684 0.0748665105 16.2063684 35.4547475 0.0741303178 35.4547475"></polygon>
        <polygon id="path-3" points="0.011745102 35.9620609 59.7823991 35.9620609 59.7823991 0.0748665105 0.011745102 0.0748665105"></polygon>
    </defs>
    <g id="tfif_logo" stroke="none" stroke-width="1" fill="none" fill-rule="evenodd">
        <g id="tfif_logo_bla_rgb_for_webb-copy">
            <polygon id="Fill-1" fill="#114FA0" points="0 103 103 103 103 0 0 0"></polygon>
            <g id="Group-10" transform="translate(10.000000, 53.000000)">
                <g id="Group-4" transform="translate(43.576031, 0.000000)">
                    <mask id="mask-2" fill="white">
                        <use xlink:href="#path-1"></use>
                    </mask>
                    <g id="Clip-3"></g>
                    <path d="M3.19841257,35.4547475 L10.986011,35.4547475 L10.986011,16.6558342 L16.0661931,16.6558342 L16.0661931,11.2996749 L10.986011,11.2996749 L10.986011,8.89812927 C10.986011,7.23344543 11.8713193,6.0811082 13.8760721,6.0811082 C14.8539795,6.0811082 15.5540046,6.17292084 16.2077301,6.402326 L16.2077301,0.584742857 C15.0419011,0.215047307 14.2028923,0.0748412178 12.710243,0.0748412178 C6.83488339,0.0748412178 3.19841257,2.84599813 3.19841257,8.71205902 L3.19841257,11.2996749 L0.0741303178,11.2996749 L0.0741303178,16.6558342 L3.19841257,16.6558342 L3.19841257,35.4547475 Z" id="Fill-2" fill="#FFFFFF" mask="url(#mask-2)"></path>
                </g>
                <mask id="mask-4" fill="white">
                    <use xlink:href="#path-3"></use>
                </mask>
                <g id="Clip-6"></g>
                <polygon id="Fill-5" fill="#FFFFFF" mask="url(#mask-4)" points="33.4872434 35.4547728 41.2722034 35.4547728 41.2722034 11.2997002 33.4872434 11.2997002"></polygon>
                <path d="M37.3578247,8.66617799 C39.7820819,8.66617799 41.6942356,6.91221077 41.6942356,4.60247775 C41.6942356,2.29282904 39.7820819,0.538861827 37.3578247,0.538861827 C34.8383301,0.538861827 32.9750293,2.29282904 32.9750293,4.60247775 C32.9750293,6.91221077 34.8383301,8.66617799 37.3578247,8.66617799" id="Fill-7" fill="#FFFFFF" mask="url(#mask-4)"></path>
                <path d="M18.0562049,35.4547475 L25.8411649,35.4547475 L25.8411649,16.6558342 L30.9239855,16.6558342 L30.9239855,11.2996749 L25.8411649,11.2996749 L25.8411649,8.89812927 C25.8411649,7.23344543 26.7264733,6.0811082 28.7313111,6.0811082 C29.7117718,6.0811082 30.4092436,6.17292084 31.0628841,6.402326 L31.0628841,0.584742857 C29.8971402,0.215047307 29.0581314,0.0748412178 27.5654821,0.0748412178 C21.6925906,0.0748412178 18.0562049,2.84599813 18.0562049,8.71205902 L18.0562049,11.2996749 L14.9319227,11.2996749 L14.9319227,16.6558342 L18.0562049,16.6558342 L18.0562049,35.4547475 Z" id="Fill-8" fill="#FFFFFF" mask="url(#mask-4)"></path>
                <path d="M11.388136,35.9620693 C13.2539902,35.9620693 14.7440862,35.5923738 15.8635306,35.3145752 L15.8635306,29.3567016 C15.0245217,29.5887204 14.1392985,29.8181255 13.3928888,29.8181255 C11.7613409,29.8181255 10.8760326,28.9870061 10.8760326,27.1413105 L10.8760326,16.6558679 L15.7709315,16.6558679 L15.7709315,11.2996244 L10.8760326,11.2996244 L10.8760326,6.21881874 L3.04213462,6.21881874 L3.04213462,11.2996244 L0.0130047217,11.2996244 L0.0130047217,16.6558679 L3.04213462,16.6558679 L3.04213462,27.9264815 C3.04213462,33.3285892 5.97849524,35.9620693 11.388136,35.9620693" id="Fill-9" fill="#FFFFFF" mask="url(#mask-4)"></path>
            </g>
        </g>
    </g>
</svg>