<?xml version="1.0" encoding="UTF-8" standalone="no"?>
<!DOCTYPE svg PUBLIC "-//W3C//DTD SVG 1.1//EN" "http://www.w3.org/Graphics/SVG/1.1/DTD/svg11.dtd">
<svg xmlns="http://www.w3.org/2000/svg" xmlns:xlink="http://www.w3.org/1999/xlink" version="1.1" width="308.76667pt" height="220.86026pt" viewBox="0 0 308.76667 220.86026">
<g enable-background="new">
<g id="Layer-1" data-name="Layer 1">
<clipPath id="cp0">
<path transform="matrix(2.7777777,0,0,-2.7777777,0,220.86026)" d="M 0 79.51 L 111.156 79.51 L 111.156 0 L 0 0 Z "/>
</clipPath>
<g clip-path="url(#cp0)">
<path transform="matrix(2.7777777,0,0,-2.7777777,268.335,119.81055)" d="M 0 0 C .118 -.008 .234 -.015 .35 -.023 C .35 -.003 .351 .017 .351 .037 C .235 .025 .12 .014 .004 .003 C .004 .003 -.001 0 0 0 M -65.565 -9.034 C -65.585 -9.029 -65.605 -9.02 -65.624 -9.021 C -65.63 -9.022 -65.635 -9.049 -65.64 -9.065 C -65.62 -9.069 -65.6 -9.077 -65.582 -9.074 C -65.575 -9.073 -65.571 -9.048 -65.565 -9.034 M -67.776 -9.026 L -67.717 -8.995 L -67.778 -8.97 Z M -66.256 -9.09 C -66.258 -9.066 -66.261 -9.042 -66.264 -9.018 C -66.555 -9.031 -66.845 -9.045 -67.136 -9.059 C -67.136 -9.083 -67.135 -9.107 -67.134 -9.131 C -66.842 -9.117 -66.549 -9.103 -66.256 -9.09 M -.001 0 C .081 -.137 -.237 -.288 .014 -.423 C .034 -.434 .041 -.527 .027 -.535 C -.189 -.665 -.197 -.778 -.03 -.989 C .128 -1.188 .066 -1.358 -.147 -1.459 C -.447 -1.601 -.734 -1.745 -.968 -1.998 C -1.065 -2.103 -1.253 -2.153 -1.407 -2.172 C -2.089 -2.254 -2.773 -2.322 -3.458 -2.381 C -3.897 -2.42 -4.338 -2.432 -4.778 -2.461 C -5.353 -2.498 -5.744 -2.811 -6.023 -3.295 C -6.229 -3.651 -6.458 -3.996 -6.655 -4.357 C -6.773 -4.572 -6.871 -4.803 -6.941 -5.038 C -7.003 -5.247 -7.001 -5.474 -7.051 -5.688 C -7.193 -6.299 -7.171 -6.834 -6.487 -7.122 C -6.434 -7.145 -6.42 -7.261 -6.39 -7.329 C -6.606 -7.782 -7.084 -7.593 -7.427 -7.783 C -7.551 -8.266 -7.369 -8.755 -7.38 -9.245 C -7.382 -9.34 -7.305 -9.454 -7.235 -9.531 C -6.798 -10.007 -6.68 -10.59 -6.656 -11.207 C -6.635 -11.76 -6.552 -12.297 -6.342 -12.819 C -6.104 -13.412 -6.163 -14.003 -6.458 -14.573 C -6.559 -14.768 -6.71 -14.85 -6.924 -14.844 C -7.719 -14.822 -8.514 -14.801 -9.308 -14.784 C -9.555 -14.779 -9.816 -14.755 -10.007 -14.954 C -10.162 -15.116 -10.345 -15.108 -10.541 -15.1 C -12.301 -15.023 -14.061 -14.947 -15.821 -14.876 C -17.39 -14.813 -18.96 -14.758 -20.529 -14.698 C -22.07 -14.64 -23.611 -14.583 -25.152 -14.518 C -25.675 -14.496 -26.196 -14.437 -26.719 -14.421 C -29.225 -14.344 -31.732 -14.254 -34.24 -14.213 C -35.56 -14.191 -36.883 -14.293 -38.204 -14.278 C -39.419 -14.265 -40.625 -14.398 -41.836 -14.424 C -44.315 -14.477 -46.796 -14.499 -49.275 -14.569 C -51.587 -14.633 -53.897 -14.757 -56.209 -14.828 C -57.805 -14.877 -59.403 -14.909 -61 -14.894 C -63.232 -14.874 -65.463 -14.801 -67.694 -14.753 C -68.933 -14.726 -70.172 -14.704 -71.411 -14.674 C -71.686 -14.667 -71.961 -14.638 -72.235 -14.611 C -72.611 -14.574 -72.906 -14.378 -73.158 -14.112 C -73.231 -14.035 -73.323 -13.924 -73.317 -13.834 C -73.295 -13.483 -73.437 -13.215 -73.605 -12.916 C -73.736 -12.683 -73.718 -12.353 -73.498 -12.089 C -73.271 -11.816 -73.067 -11.52 -72.882 -11.217 C -72.826 -11.125 -72.868 -10.974 -72.865 -10.839 C -72.457 -10.614 -72.457 -10.614 -72 -9.987 C -72.061 -9.966 -72.136 -9.942 -72.209 -9.914 C -72.284 -9.886 -72.357 -9.854 -72.472 -9.806 C -72.057 -9.401 -71.618 -9.19 -71.045 -9.205 C -70.247 -9.226 -69.448 -9.192 -68.649 -9.173 C -68.528 -9.17 -68.407 -9.12 -68.291 -9.048 C -69.371 -8.856 -70.46 -8.94 -71.527 -8.88 C -71.628 -8.672 -71.505 -8.603 -71.367 -8.578 C -70.704 -8.454 -70.049 -8.282 -69.398 -8.318 C -69.262 -8.052 -69.384 -7.943 -69.559 -7.902 C -69.772 -7.851 -69.993 -7.823 -70.213 -7.813 C -70.98 -7.778 -71.746 -7.693 -72.517 -7.769 C -73.093 -7.826 -73.671 -7.857 -74.249 -7.881 C -74.435 -7.889 -74.625 -7.846 -74.811 -7.814 C -74.917 -7.796 -75.033 -7.705 -75.121 -7.73 C -75.614 -7.869 -75.956 -7.564 -76.34 -7.36 C -76.733 -7.152 -76.913 -6.805 -76.853 -6.408 C -76.733 -5.601 -77.164 -4.98 -77.466 -4.314 C -77.542 -4.147 -77.699 -4.009 -77.837 -3.878 C -77.996 -3.726 -78.18 -3.602 -78.346 -3.457 C -78.969 -2.911 -79.69 -2.614 -80.52 -2.572 C -80.71 -2.563 -80.907 -2.538 -81.085 -2.477 C -81.78 -2.239 -82.176 -1.713 -82.092 -.985 C -82.049 -.609 -82.117 -.28 -82.214 .095 C -81.804 .665 -81.83 1.375 -81.687 2.039 C -81.66 2.168 -81.86 2.316 -81.675 2.467 C -81.409 2.683 -81.545 2.904 -81.706 3.142 C -81.551 3.427 -81.244 3.71 -81.553 4.084 C -81.576 4.112 -81.562 4.192 -81.539 4.233 C -81.361 4.552 -81.522 4.828 -81.667 5.088 C -81.799 5.326 -81.985 5.535 -81.962 5.879 C -81.784 5.971 -81.588 6.057 -81.409 6.17 C -81.196 6.303 -81.168 6.479 -81.288 6.737 C -81.413 7.005 -81.521 7.931 -81.409 8.144 C -81.212 8.517 -81.2 8.902 -81.196 9.311 C -81.192 9.641 -80.984 9.968 -81.19 10.319 C -81.288 10.331 -81.395 10.346 -81.506 10.36 C -81.508 10.401 -81.519 10.444 -81.51 10.483 C -81.404 10.915 -80.976 11.141 -80.807 11.595 C -80.898 11.751 -81.004 11.934 -81.095 12.092 C -81.035 12.185 -80.911 12.292 -80.911 12.398 C -80.91 12.81 -80.951 13.221 -80.973 13.633 C -80.987 13.895 -80.906 14.077 -80.663 14.246 C -80.114 14.628 -80.029 15.449 -80.411 15.994 C -80.538 16.177 -80.666 16.336 -80.933 16.413 C -80.671 16.577 -80.316 16.635 -80.372 17.033 C -80.379 17.079 -80.35 17.146 -80.316 17.181 C -80.202 17.294 -79.982 17.39 -79.975 17.504 C -79.953 17.822 -79.971 18.16 -80.059 18.465 C -80.179 18.888 -80.148 19.219 -79.751 19.464 C -79.261 19.766 -79.188 20.326 -79.002 20.792 C -78.898 21.055 -79.043 21.416 -79.078 21.763 C -78.944 21.9 -78.806 22.072 -78.637 22.204 C -78.49 22.318 -78.317 22.416 -78.139 22.472 C -77.16 22.783 -76.153 22.92 -75.127 22.943 C -73.749 22.974 -72.37 22.999 -70.993 23.047 C -69.425 23.101 -67.858 23.189 -66.29 23.239 C -65.602 23.261 -64.913 23.222 -64.224 23.215 C -62.35 23.196 -60.475 23.186 -58.601 23.154 C -58.111 23.146 -57.622 23.049 -57.131 23.036 C -56.639 23.024 -56.146 23.066 -55.654 23.086 C -55.406 23.096 -55.158 23.134 -54.912 23.12 C -54.055 23.073 -53.205 23.126 -52.354 23.213 C -52.055 23.244 -51.751 23.212 -51.45 23.219 C -51.22 23.224 -51.016 23.189 -50.857 22.998 C -50.723 22.837 -50.538 22.816 -50.334 22.815 C -49.482 22.812 -48.629 22.793 -47.777 22.779 C -47.639 22.777 -47.499 22.75 -47.364 22.766 C -46.794 22.832 -46.282 22.741 -45.816 22.363 C -45.529 22.131 -45.139 22.161 -44.781 22.147 C -44.622 22.14 -44.479 22.181 -44.394 21.958 C -44.363 21.877 -44.099 21.837 -43.951 21.855 C -42.843 21.994 -41.759 21.806 -40.678 21.613 C -40.368 21.558 -40.01 21.634 -39.712 21.352 C -40.019 21.255 -40.297 21.166 -40.564 21.081 C -40.646 20.579 -40.065 20.843 -39.978 20.548 C -40.018 20.506 -40.049 20.443 -40.085 20.44 C -40.773 20.387 -41.446 20.274 -42.102 20.043 C -42.356 19.954 -42.644 19.95 -42.919 19.93 C -43.265 19.904 -43.576 19.819 -43.754 19.491 C -43.946 19.137 -43.901 18.801 -43.584 18.454 C -42.925 18.412 -42.214 18.339 -41.502 18.325 C -39.795 18.293 -38.087 18.273 -36.38 18.277 C -34.369 18.281 -32.358 18.319 -30.347 18.334 C -29.823 18.338 -29.299 18.312 -28.776 18.295 C -26.545 18.225 -24.314 18.162 -22.083 18.077 C -20.624 18.021 -19.167 17.92 -17.708 17.858 C -16.36 17.801 -15.011 17.764 -13.662 17.728 C -13.439 17.722 -13.241 17.693 -13.029 17.599 C -12.812 17.503 -12.55 17.495 -12.305 17.475 C -11.262 17.389 -10.218 17.312 -9.174 17.235 C -8.379 17.176 -7.609 17.014 -6.871 16.705 C -6.77 16.662 -6.662 16.625 -6.554 16.614 C -6.169 16.576 -5.818 16.49 -5.527 16.197 C -5.424 16.093 -5.21 16.11 -5.068 16.033 C -4.882 15.931 -4.716 15.792 -4.502 15.643 C -4.768 15.119 -4.827 14.614 -4.569 14.139 C -4.715 13.923 -4.862 13.754 -4.953 13.559 C -5.069 13.308 -5.14 13.041 -4.957 12.773 C -4.882 12.662 -4.815 12.526 -4.805 12.397 C -4.783 12.108 -4.606 11.961 -4.387 11.827 C -4.322 11.787 -4.282 11.707 -4.205 11.616 C -4.299 11.427 -4.407 11.24 -4.486 11.043 C -4.592 10.777 -4.533 10.551 -4.294 10.388 C -4.092 10.25 -3.865 10.147 -3.645 10.037 C -3.153 9.791 -3.008 9.244 -3.324 8.794 C -3.45 8.614 -3.615 8.456 -3.709 8.262 C -3.827 8.018 -3.891 7.747 -3.973 7.503 C -3.606 7.104 -3.141 7.247 -2.738 7.228 C -2.624 7.034 -2.72 6.95 -2.853 6.887 C -3.04 6.799 -3.183 6.685 -3.142 6.448 C -3.108 6.409 -3.082 6.354 -3.04 6.332 C -2.907 6.264 -2.689 6.313 -2.694 6.067 C -2.697 5.914 -2.772 5.809 -2.919 5.76 C -3.078 5.708 -3.254 5.658 -3.243 5.45 C -3.233 5.273 -3.128 5.144 -2.95 5.091 C -2.155 4.854 -1.987 4.19 -1.872 3.497 C -1.845 3.336 -1.864 3.168 -1.865 3.004 C -1.867 2.704 -1.871 2.405 -1.873 2.262 C -1.557 1.923 -1.337 1.677 -1.106 1.442 C -.643 .973 -.101 .793 .546 1.003 C .729 1.062 .917 1.103 1.105 1.143 C 1.145 1.151 1.194 1.12 1.279 1.095 C .996 .937 .731 .808 .488 .648 C .305 .528 .142 .374 -.012 .218 C -.045 .185 -.003 .077 .004 .003 Z " fill="#114fa0"/>
<path transform="matrix(2.7777777,0,0,-2.7777777,268.335,119.81055)" stroke-width=".222" stroke-linecap="butt" stroke-miterlimit="10" stroke-linejoin="miter" fill="none" stroke="#114fa0" d="M 0 0 C .118 -.008 .234 -.015 .35 -.023 C .35 -.003 .351 .017 .351 .037 C .235 .025 .12 .014 .004 .003 C .004 .003 -.001 0 0 0 Z M -65.565 -9.034 C -65.585 -9.029 -65.605 -9.02 -65.624 -9.021 C -65.63 -9.022 -65.635 -9.049 -65.64 -9.065 C -65.62 -9.069 -65.6 -9.077 -65.582 -9.074 C -65.575 -9.073 -65.571 -9.048 -65.565 -9.034 Z M -67.776 -9.026 L -67.717 -8.995 L -67.778 -8.97 L -67.776 -9.026 Z M -66.256 -9.09 C -66.258 -9.066 -66.261 -9.042 -66.264 -9.018 C -66.555 -9.031 -66.845 -9.045 -67.136 -9.059 C -67.136 -9.083 -67.135 -9.107 -67.134 -9.131 C -66.842 -9.117 -66.549 -9.103 -66.256 -9.09 Z M -.001 0 C .081 -.137 -.237 -.288 .014 -.423 C .034 -.434 .041 -.527 .027 -.535 C -.189 -.665 -.197 -.778 -.03 -.989 C .128 -1.188 .066 -1.358 -.147 -1.459 C -.447 -1.601 -.734 -1.745 -.968 -1.998 C -1.065 -2.103 -1.253 -2.153 -1.407 -2.172 C -2.089 -2.254 -2.773 -2.322 -3.458 -2.381 C -3.897 -2.42 -4.338 -2.432 -4.778 -2.461 C -5.353 -2.498 -5.744 -2.811 -6.023 -3.295 C -6.229 -3.651 -6.458 -3.996 -6.655 -4.357 C -6.773 -4.572 -6.871 -4.803 -6.941 -5.038 C -7.003 -5.247 -7.001 -5.474 -7.051 -5.688 C -7.193 -6.299 -7.171 -6.834 -6.487 -7.122 C -6.434 -7.145 -6.42 -7.261 -6.39 -7.329 C -6.606 -7.782 -7.084 -7.593 -7.427 -7.783 C -7.551 -8.266 -7.369 -8.755 -7.38 -9.245 C -7.382 -9.34 -7.305 -9.454 -7.235 -9.531 C -6.798 -10.007 -6.68 -10.59 -6.656 -11.207 C -6.635 -11.76 -6.552 -12.297 -6.342 -12.819 C -6.104 -13.412 -6.163 -14.003 -6.458 -14.573 C -6.559 -14.768 -6.71 -14.85 -6.924 -14.844 C -7.719 -14.822 -8.514 -14.801 -9.308 -14.784 C -9.555 -14.779 -9.816 -14.755 -10.007 -14.954 C -10.162 -15.116 -10.345 -15.108 -10.541 -15.1 C -12.301 -15.023 -14.061 -14.947 -15.821 -14.876 C -17.39 -14.813 -18.96 -14.758 -20.529 -14.698 C -22.07 -14.64 -23.611 -14.583 -25.152 -14.518 C -25.675 -14.496 -26.196 -14.437 -26.719 -14.421 C -29.225 -14.344 -31.732 -14.254 -34.24 -14.213 C -35.56 -14.191 -36.883 -14.293 -38.204 -14.278 C -39.419 -14.265 -40.625 -14.398 -41.836 -14.424 C -44.315 -14.477 -46.796 -14.499 -49.275 -14.569 C -51.587 -14.633 -53.897 -14.757 -56.209 -14.828 C -57.805 -14.877 -59.403 -14.909 -61 -14.894 C -63.232 -14.874 -65.463 -14.801 -67.694 -14.753 C -68.933 -14.726 -70.172 -14.704 -71.411 -14.674 C -71.686 -14.667 -71.961 -14.638 -72.235 -14.611 C -72.611 -14.574 -72.906 -14.378 -73.158 -14.112 C -73.231 -14.035 -73.323 -13.924 -73.317 -13.834 C -73.295 -13.483 -73.437 -13.215 -73.605 -12.916 C -73.736 -12.683 -73.718 -12.353 -73.498 -12.089 C -73.271 -11.816 -73.067 -11.52 -72.882 -11.217 C -72.826 -11.125 -72.868 -10.974 -72.865 -10.839 C -72.457 -10.614 -72.457 -10.614 -72 -9.987 C -72.061 -9.966 -72.136 -9.942 -72.209 -9.914 C -72.284 -9.886 -72.357 -9.854 -72.472 -9.806 C -72.057 -9.401 -71.618 -9.19 -71.045 -9.205 C -70.247 -9.226 -69.448 -9.192 -68.649 -9.173 C -68.528 -9.17 -68.407 -9.12 -68.291 -9.048 C -69.371 -8.856 -70.46 -8.94 -71.527 -8.88 C -71.628 -8.672 -71.505 -8.603 -71.367 -8.578 C -70.704 -8.454 -70.049 -8.282 -69.398 -8.318 C -69.262 -8.052 -69.384 -7.943 -69.559 -7.902 C -69.772 -7.851 -69.993 -7.823 -70.213 -7.813 C -70.98 -7.778 -71.746 -7.693 -72.517 -7.769 C -73.093 -7.826 -73.671 -7.857 -74.249 -7.881 C -74.435 -7.889 -74.625 -7.846 -74.811 -7.814 C -74.917 -7.796 -75.033 -7.705 -75.121 -7.73 C -75.614 -7.869 -75.956 -7.564 -76.34 -7.36 C -76.733 -7.152 -76.913 -6.805 -76.853 -6.408 C -76.733 -5.601 -77.164 -4.98 -77.466 -4.314 C -77.542 -4.147 -77.699 -4.009 -77.837 -3.878 C -77.996 -3.726 -78.18 -3.602 -78.346 -3.457 C -78.969 -2.911 -79.69 -2.614 -80.52 -2.572 C -80.71 -2.563 -80.907 -2.538 -81.085 -2.477 C -81.78 -2.239 -82.176 -1.713 -82.092 -.985 C -82.049 -.609 -82.117 -.28 -82.214 .095 C -81.804 .665 -81.83 1.375 -81.687 2.039 C -81.66 2.168 -81.86 2.316 -81.675 2.467 C -81.409 2.683 -81.545 2.904 -81.706 3.142 C -81.551 3.427 -81.244 3.71 -81.553 4.084 C -81.576 4.112 -81.562 4.192 -81.539 4.233 C -81.361 4.552 -81.522 4.828 -81.667 5.088 C -81.799 5.326 -81.985 5.535 -81.962 5.879 C -81.784 5.971 -81.588 6.057 -81.409 6.17 C -81.196 6.303 -81.168 6.479 -81.288 6.737 C -81.413 7.005 -81.521 7.931 -81.409 8.144 C -81.212 8.517 -81.2 8.902 -81.196 9.311 C -81.192 9.641 -80.984 9.968 -81.19 10.319 C -81.288 10.331 -81.395 10.346 -81.506 10.36 C -81.508 10.401 -81.519 10.444 -81.51 10.483 C -81.404 10.915 -80.976 11.141 -80.807 11.595 C -80.898 11.751 -81.004 11.934 -81.095 12.092 C -81.035 12.185 -80.911 12.292 -80.911 12.398 C -80.91 12.81 -80.951 13.221 -80.973 13.633 C -80.987 13.895 -80.906 14.077 -80.663 14.246 C -80.114 14.628 -80.029 15.449 -80.411 15.994 C -80.538 16.177 -80.666 16.336 -80.933 16.413 C -80.671 16.577 -80.316 16.635 -80.372 17.033 C -80.379 17.079 -80.35 17.146 -80.316 17.181 C -80.202 17.294 -79.982 17.39 -79.975 17.504 C -79.953 17.822 -79.971 18.16 -80.059 18.465 C -80.179 18.888 -80.148 19.219 -79.751 19.464 C -79.261 19.766 -79.188 20.326 -79.002 20.792 C -78.898 21.055 -79.043 21.416 -79.078 21.763 C -78.944 21.9 -78.806 22.072 -78.637 22.204 C -78.49 22.318 -78.317 22.416 -78.139 22.472 C -77.16 22.783 -76.153 22.92 -75.127 22.943 C -73.749 22.974 -72.37 22.999 -70.993 23.047 C -69.425 23.101 -67.858 23.189 -66.29 23.239 C -65.602 23.261 -64.913 23.222 -64.224 23.215 C -62.35 23.196 -60.475 23.186 -58.601 23.154 C -58.111 23.146 -57.622 23.049 -57.131 23.036 C -56.639 23.024 -56.146 23.066 -55.654 23.086 C -55.406 23.096 -55.158 23.134 -54.912 23.12 C -54.055 23.073 -53.205 23.126 -52.354 23.213 C -52.055 23.244 -51.751 23.212 -51.45 23.219 C -51.22 23.224 -51.016 23.189 -50.857 22.998 C -50.723 22.837 -50.538 22.816 -50.334 22.815 C -49.482 22.812 -48.629 22.793 -47.777 22.779 C -47.639 22.777 -47.499 22.75 -47.364 22.766 C -46.794 22.832 -46.282 22.741 -45.816 22.363 C -45.529 22.131 -45.139 22.161 -44.781 22.147 C -44.622 22.14 -44.479 22.181 -44.394 21.958 C -44.363 21.877 -44.099 21.837 -43.951 21.855 C -42.843 21.994 -41.759 21.806 -40.678 21.613 C -40.368 21.558 -40.01 21.634 -39.712 21.352 C -40.019 21.255 -40.297 21.166 -40.564 21.081 C -40.646 20.579 -40.065 20.843 -39.978 20.548 C -40.018 20.506 -40.049 20.443 -40.085 20.44 C -40.773 20.387 -41.446 20.274 -42.102 20.043 C -42.356 19.954 -42.644 19.95 -42.919 19.93 C -43.265 19.904 -43.576 19.819 -43.754 19.491 C -43.946 19.137 -43.901 18.801 -43.584 18.454 C -42.925 18.412 -42.214 18.339 -41.502 18.325 C -39.795 18.293 -38.087 18.273 -36.38 18.277 C -34.369 18.281 -32.358 18.319 -30.347 18.334 C -29.823 18.338 -29.299 18.312 -28.776 18.295 C -26.545 18.225 -24.314 18.162 -22.083 18.077 C -20.624 18.021 -19.167 17.92 -17.708 17.858 C -16.36 17.801 -15.011 17.764 -13.662 17.728 C -13.439 17.722 -13.241 17.693 -13.029 17.599 C -12.812 17.503 -12.55 17.495 -12.305 17.475 C -11.262 17.389 -10.218 17.312 -9.174 17.235 C -8.379 17.176 -7.609 17.014 -6.871 16.705 C -6.77 16.662 -6.662 16.625 -6.554 16.614 C -6.169 16.576 -5.818 16.49 -5.527 16.197 C -5.424 16.093 -5.21 16.11 -5.068 16.033 C -4.882 15.931 -4.716 15.792 -4.502 15.643 C -4.768 15.119 -4.827 14.614 -4.569 14.139 C -4.715 13.923 -4.862 13.754 -4.953 13.559 C -5.069 13.308 -5.14 13.041 -4.957 12.773 C -4.882 12.662 -4.815 12.526 -4.805 12.397 C -4.783 12.108 -4.606 11.961 -4.387 11.827 C -4.322 11.787 -4.282 11.707 -4.205 11.616 C -4.299 11.427 -4.407 11.24 -4.486 11.043 C -4.592 10.777 -4.533 10.551 -4.294 10.388 C -4.092 10.25 -3.865 10.147 -3.645 10.037 C -3.153 9.791 -3.008 9.244 -3.324 8.794 C -3.45 8.614 -3.615 8.456 -3.709 8.262 C -3.827 8.018 -3.891 7.747 -3.973 7.503 C -3.606 7.104 -3.141 7.247 -2.738 7.228 C -2.624 7.034 -2.72 6.95 -2.853 6.887 C -3.04 6.799 -3.183 6.685 -3.142 6.448 C -3.108 6.409 -3.082 6.354 -3.04 6.332 C -2.907 6.264 -2.689 6.313 -2.694 6.067 C -2.697 5.914 -2.772 5.809 -2.919 5.76 C -3.078 5.708 -3.254 5.658 -3.243 5.45 C -3.233 5.273 -3.128 5.144 -2.95 5.091 C -2.155 4.854 -1.987 4.19 -1.872 3.497 C -1.845 3.336 -1.864 3.168 -1.865 3.004 C -1.867 2.704 -1.871 2.405 -1.873 2.262 C -1.557 1.923 -1.337 1.677 -1.106 1.442 C -.643 .973 -.101 .793 .546 1.003 C .729 1.062 .917 1.103 1.105 1.143 C 1.145 1.151 1.194 1.12 1.279 1.095 C .996 .937 .731 .808 .488 .648 C .305 .528 .142 .374 -.012 .218 C -.045 .185 -.003 .077 .004 .003 L -.001 0 Z "/>
<path transform="matrix(2.7777777,0,0,-2.7777777,93.257228,97.68332)" d="M 0 0 L -5.163 0 L -5.163 3.631 L 9.56 3.631 L 9.56 0 L 4.325 0 L 4.325 -15.498 L 0 -15.498 Z " fill="#ffffff"/>
<path transform="matrix(2.7777777,0,0,-2.7777777,126.19055,87.59748)" d="M 0 0 L 11.684 0 L 11.684 -3.542 L 4.325 -3.542 L 4.325 -7.929 L 11.207 -7.929 L 11.207 -11.438 L 4.325 -11.438 L 4.325 -19.129 L 0 -19.129 Z " fill="#ffffff"/>
<path transform="matrix(2.7777777,0,0,-2.7777777,0,220.86026)" d="M 59.659 42.737 L 63.984 42.737 L 63.984 28.845 L 59.659 28.845 Z M 64.106 46.594 C 64.111 45.392 63.223 44.436 61.784 44.436 C 60.417 44.436 59.531 45.392 59.536 46.594 C 59.531 47.828 60.437 48.757 61.823 48.757 C 63.218 48.757 64.089 47.833 64.106 46.594 " fill="#ffffff"/>
<path transform="matrix(2.7777777,0,0,-2.7777777,187.745,87.59748)" d="M 0 0 L 11.684 0 L 11.684 -3.542 L 4.325 -3.542 L 4.325 -7.929 L 11.207 -7.929 L 11.207 -11.438 L 4.325 -11.438 L 4.325 -19.129 L 0 -19.129 Z " fill="#ffffff"/>
</g>
</g>
</g>
</svg>
