<svg id="Layer_1" data-name="Layer 1" xmlns="http://www.w3.org/2000/svg" viewBox="0 0 1920 1080"><defs><style>.cls-1{fill:#354f63;}.cls-2{fill:#6bc;}</style></defs><title>TEK_logo_RGB</title><path class="cls-1" d="M1623.11,769.33a35,35,0,0,1-20.68-6.75l-255-185.72a35.17,35.17,0,0,1-1.25-55.91l255-203.85a35.18,35.18,0,0,1,43.93,55l-219,175.07,217.78,158.58a35.18,35.18,0,0,1-20.73,63.62"/><path class="cls-2" d="M1071,379.75H296.86a35.18,35.18,0,0,1,0-70.35H1071a35.18,35.18,0,0,1,0,70.35"/><path class="cls-2" d="M578,770.61c-19.43,0-35.17-15.09-35.17-33.69V536.52c0-18.61,15.74-33.69,35.17-33.69s35.18,15.08,35.18,33.69v200.4c0,18.6-15.75,33.69-35.18,33.69"/><path class="cls-1" d="M1247.17,769.32A35.16,35.16,0,0,1,1212,734.15V344.58a35.18,35.18,0,1,1,70.35,0V734.15a35.17,35.17,0,0,1-35.18,35.17"/><path class="cls-1" d="M1071,577.82H776.21a35.18,35.18,0,1,1,0-70.35H1071a35.18,35.18,0,0,1,0,70.35"/><path class="cls-1" d="M1071,769.32H776.21a35.18,35.18,0,1,1,0-70.35H1071a35.18,35.18,0,0,1,0,70.35"/></svg>