<?xml version="1.0" encoding="UTF-8"?>
<!DOCTYPE svg PUBLIC "-//W3C//DTD SVG 1.1//EN" "http://www.w3.org/Graphics/SVG/1.1/DTD/svg11.dtd">
<!-- Creator: CorelDRAW 2019 (64-Bit) -->
<svg xmlns="http://www.w3.org/2000/svg" xml:space="preserve" width="210mm" height="210mm" version="1.1" shape-rendering="geometricPrecision" text-rendering="geometricPrecision" image-rendering="optimizeQuality" fill-rule="evenodd" clip-rule="evenodd"
viewBox="0 0 21000 21000"
 xmlns:xlink="http://www.w3.org/1999/xlink"
 xmlns:xodm="http://www.corel.com/coreldraw/odm/2003">
 <g id="Layer_x0020_1">
  <metadata id="CorelCorpID_0Corel-Layer"/>
  <path fill="black" stroke="black" stroke-width="20" stroke-miterlimit="22.9256" d="M6180.49 7223.81c33.4,-35.79 46.66,-59.73 76.18,-89.6l250.69 -257.39c95.62,-113.24 409.35,-368.21 544.19,-470.25 -417.14,109.93 -821.18,270.42 -1026.05,406.6 -228.42,151.84 -460.71,368.86 -539.2,664.45 -58.74,221.22 -275.11,782.05 -275.11,1047.7 0,227.42 16.68,196.05 27.22,274.18 11.18,-29.42 22.63,-58.83 34.34,-88.26 176.57,-443.71 466.83,-941.41 754.32,-1298.62 51.83,-64.4 101.99,-133.71 153.42,-188.81zm7310.99 -948.12c255.79,181.62 524.52,406.43 727.22,609.93 232.93,233.85 448.34,490.35 640.96,765.24l-184.9 -1375.17 -1183.28 0zm-6206.96 8961.06c-452.18,-292.97 -855.23,-649.8 -1196.07,-1057.73 -23.6,87.74 -36.67,170.94 -36.67,248.28l0 335.19c0,365.27 314.33,594.23 685.56,594.23l121.87 0c158.12,0 299.28,-43.18 425.31,-119.97zm2748.82 -9941.03c1177.11,-55.77 2291.58,240.76 3240.56,834.28 311.77,194.99 683.25,493.04 944.8,755.62 903.06,906.6 1542.75,2153.77 1611.53,3492.04 45.19,879.31 -53.39,1619.65 -345.29,2369.98 -234.26,602.19 -569.21,1112.33 -981.38,1580.17 -219.95,249.66 -536.38,521.45 -808.75,725.55 -253.6,190.02 -534.3,352.77 -846.96,511.04 -609.73,308.67 -1384.47,510.26 -2164.69,553.87 -3136.55,175.32 -5687.15,-2119.08 -5798.23,-5073.28 -32.76,-871.12 95.07,-1598.06 387.82,-2333.75 176.57,-443.71 466.83,-941.41 754.32,-1298.62 51.83,-64.4 101.99,-133.71 153.42,-188.81 33.4,-35.79 46.66,-59.73 76.18,-89.6l250.69 -257.39c97.26,-115.18 420.17,-376.99 550.97,-475.36 818.97,-615.91 1875.33,-1053.64 2975.01,-1105.74zm8270.33 4921.16c-4.27,-54.41 -86.57,-606.79 -93.33,-615.84 -14.79,-19.82 -274.23,-21.68 -323.94,-26.91 -275.69,-29.02 -592.16,-103.69 -819.89,-238.56 -547.6,-324.31 -651.56,-866.78 -338.8,-1419.76 44.61,-78.88 89.69,-150.7 138.65,-214.08l505.22 -545.45c-67.59,-105.7 -320.56,-498.05 -355.43,-582.98 -65.74,12.95 -152.23,51.49 -220.92,71.9 -73.92,21.96 -143.24,42.56 -221.55,59.8 -165.12,36.37 -348.21,59.32 -521.67,52.48 -350.73,-13.84 -662.59,-154.32 -805.85,-340.21 -205.23,-266.29 -253.9,-565.8 -193.9,-912.3 40.47,-233.74 116,-436.34 205.82,-646.04 23.58,-55.04 72.05,-142.56 85.93,-191.31 -47.13,-33.49 -541.02,-326.42 -609.75,-348.93 -33.76,37.93 -42.51,44.01 -78.13,72.3l-245.33 200.5c-103.59,74.64 -238.45,158.98 -372.41,218.48 -643.18,285.73 -1259.73,122.94 -1550,-538.53 -95.88,-218.5 -154.42,-468.62 -177.23,-713.78 -8.54,-91.79 -4.4,-192.97 -14.91,-282.6l-659.3 -135.43c-90.48,65.86 -541.95,1150.54 -1275.06,1126.7 -297.99,-9.68 -511.27,-175.02 -698.59,-361.52 -125.12,-124.57 -237.65,-254.97 -339.53,-407.15 -74.13,-110.74 -166.87,-240.05 -228.66,-360.42 -196.24,-4.43 -485.44,82.63 -665.36,136.24 -9.87,66.51 5.03,203.87 1.67,284.98 -10.13,243.97 -66.36,503.12 -175.48,712.28 -136.87,262.35 -319.6,457.89 -613.66,579.32 -549.97,227.11 -1133.53,8.35 -1522.29,-386.48 -29.91,-30.38 -107.81,-123.01 -128.64,-160.42 -41.06,13.34 -118.33,70.54 -156.85,96.55 -95.27,64.3 -342.26,252.7 -431.45,284.26 37.64,148.34 229.93,412.42 284.74,887.54 113.8,986.56 -706.63,1422.61 -1569.64,1165.41 -157.1,-46.82 -381.61,-155.41 -410.98,-163.24 -49.02,137.22 -278.28,430.52 -356.91,591.44 48.4,49.97 101.3,90.77 152.64,144.92 27.89,29.42 46.47,51.89 73.16,82.7l201.12 244.75c434.53,594.86 527.99,1393.62 -242.45,1782.45 -348.5,175.88 -641.02,166.51 -1018.08,171.91 -22.49,45.58 -89.74,540.73 -98.34,627.7 234.19,37.28 683.54,291.75 862.14,434.06 190.53,151.82 453.16,417.76 489.89,805.91 66.57,703.54 -666.68,1217.25 -1159.72,1438.07l188.15 550.05c81.62,4.1 199.38,-12.41 287.9,-13.97 257.2,-4.56 541.2,23.02 781.42,105.18 310.4,106.17 544.29,273.86 672.45,500.32 241.64,427 82.57,969.17 -160.06,1369 -76.04,125.29 -161.18,226.63 -242.48,346.9l441.08 440.37c52.76,-19.64 123.27,-74.19 184.05,-103.68 209.01,-101.42 397.38,-181.61 640.11,-210.47 634.56,-75.42 1193.41,268.19 1385.1,887.01 166.09,536.16 22.07,832.65 24.11,995.88 53.03,30.89 592.65,256.19 627.09,258.19 91.54,-103.43 172.93,-204.72 281.18,-288.04 56.74,-43.67 102.02,-83.82 164.35,-126.18 787.33,-535.14 1637.29,-275.33 1994.3,577.88 73.58,175.84 79.77,288.72 130.44,436.94l701.99 -2.14c63.16,-283.09 207.71,-614.36 347.36,-802.01 536.87,-721.42 1314.34,-598.25 1930.71,-70.87 98.04,83.89 211.93,174.49 294.96,276.28 5.69,-0.92 603.64,-235.95 621.84,-255.89 16.78,-40.09 4.51,-429.16 10.82,-522.69 11.03,-163.3 34.24,-320.11 73.04,-474.55 36.49,-145.21 94.19,-281.2 159.59,-390.87 437.15,-733.07 1345.42,-468.77 1984.8,-183.5 25.29,-12.71 415.21,-401.05 448.42,-444.21 -34.02,-60.01 -84.35,-117.36 -123.25,-180.63 -116.09,-188.83 -217.62,-372.9 -289.38,-592.22 -230.57,-704.73 6.02,-1274.71 683.83,-1505.1 396.56,-134.79 679,-70.92 1061.2,-58.06l161.98 -490.92c-37.75,-20.67 -76.11,-29.48 -116.25,-46.99 -250.9,-109.44 -487.72,-285.01 -657.12,-484.3 -485.88,-571.62 -546.14,-1299.89 85.04,-1784.79 206.19,-158.41 589.69,-334.76 914.28,-392.63zm-8245.1 -2554.65c495.82,0 4715.17,-46.94 4801.27,-10l-185.08 -1376.54 -6779.56 0c-584.64,0 -1518.99,304.36 -1869.7,537.48 -228.42,151.84 -460.71,368.86 -539.2,664.45 -58.74,221.22 -275.11,782.05 -275.11,1047.7 0,252.64 20.58,185.91 30.47,304.71 294.57,-474.67 893.11,-749.47 1065.82,-866.36 497.23,-336.54 728.02,-286.2 1465.83,-286.2 138.41,1067.82 59.2,1572.75 -54.33,2642.53 -63.33,596.78 -160.33,1099.44 -348.67,1571.1 -273.21,684.2 -1318.53,1844.6 -1318.53,2536.2l0 335.19c0,365.27 314.33,594.23 685.56,594.23l121.87 0c1163.21,0 1408.95,-2336.88 1461.81,-3200.44 12.36,-202.11 14.07,-428.49 153.11,-502.05 133.12,31.01 250.32,438.08 308.68,575.01 533.36,1251.83 2093.83,3124.75 3554.62,3124.75l182.83 0c791.97,0 1335.81,-360.5 1701.18,-797.44 663.69,-623.05 530.49,-2134.36 300.96,-2110.02 -58.12,0 -1540.01,3151.05 -5001.17,-376.8 -96.91,-98.77 -434.4,-495.71 -437.7,-644.05 148.86,-99.7 249.57,-82.24 447.6,-131.36 958.02,-237.59 2265.43,-464.61 3097.11,-879.3 1084.57,-540.77 1671.53,-2295.69 -208.25,-2295.69l-60.95 0 0 121.89c0,836.36 -794.24,1418.92 -1344.91,1732.72 -446.45,254.42 -1582.29,857.5 -2220.07,857.5 -209.58,0 -35.5,-2487.6 -30.99,-2758.36 8.84,-532.36 -158.88,-410.85 1295.5,-410.85z"/>
 </g>
</svg>
